<svg width="14" height="16" viewBox="0 0 14 16" fill="none" xmlns="http://www.w3.org/2000/svg">
<path d="M7.36156 0.00542376C7.28777 -0.0191731 7.20168 0.0423191 7.20168 0.140707C7.59523 2.66189 7.07869 5.40444 4.04098 6.46211H3.99178C3.46295 5.7365 3.32767 4.53125 3.29077 4.03931C3.29077 3.95323 3.19238 3.89173 3.10629 3.95323C1.08935 5.17077 -0.1036 7.42139 0.00708554 9.79499C0.166965 13.3861 3.19238 16.1533 6.75893 15.9934C10.7805 15.9934 13.5477 12.8204 13.5477 9.22926C13.5477 4.55585 10.2763 1.43204 7.36156 0.00542376ZM6.96801 8.23309C7.21398 7.06473 7.93958 6.73267 8.44382 6.90485C9.10794 7.13852 9.28012 8.06091 9.12024 8.86031C8.87427 10.0287 8.14866 10.373 7.63212 10.1885C6.9803 9.95487 6.79583 9.03248 6.96801 8.23309ZM5.14784 6.90485C5.38151 6.81876 5.62748 6.85566 5.86115 6.97864C6.2301 7.18772 6.51296 7.65506 6.63595 8.23309C6.79583 9.03248 6.62365 9.95487 5.95953 10.1762C5.4553 10.3484 4.71739 10.0041 4.47142 8.84801C4.31154 8.06091 4.48372 7.13852 5.14784 6.90485ZM3.95489 11.3323C3.37686 11.6521 2.65125 11.2708 2.2946 10.6805C1.92564 10.0656 1.96254 9.25386 2.55286 8.9218C3.0817 8.62664 3.8196 8.9095 4.21315 9.57362C4.6559 10.3115 4.45912 11.0494 3.95489 11.3323ZM8.83737 14.2224C8.14866 14.5545 7.45994 14.7267 6.77123 14.7267C6.08252 14.7267 5.39381 14.5545 4.70509 14.2224C4.37303 14.0625 4.16396 13.7182 4.16396 13.3492C4.16396 11.9472 5.33231 10.7912 6.77123 10.7912C8.21015 10.7912 9.3785 11.9349 9.3785 13.3492C9.3785 13.7182 9.15713 14.0625 8.83737 14.2224ZM11.2479 10.6682C10.8789 11.2708 10.1656 11.6398 9.58758 11.32C8.99725 11.0002 8.96036 10.1762 9.32931 9.56132C9.72286 8.8972 10.4608 8.61434 10.9896 8.9095C11.5799 9.24156 11.6168 10.0533 11.2479 10.6682Z" fill="white"/>
</svg>
