<svg id="Layer_1" data-name="Layer 1" xmlns="http://www.w3.org/2000/svg" viewBox="0 0 3245.88 2386.22"><defs><style>.cls-1{fill:#06bfff;}.cls-2{fill:#ade1f7;}.cls-3{opacity:0.3;}.cls-4{fill:#000072;}.cls-5{opacity:0.7;}.cls-6{fill:#fff;}.cls-7{fill:#ff1273;}.cls-8{fill:#f4c095;}.cls-9{fill:#ffc9a1;}.cls-10{fill:#ffa910;}.cls-11{fill:#f962bb;}.cls-12{fill:none;}.cls-13{fill:#f958a9;}.cls-14{fill:#78788e;}.cls-15{fill:#f73954;}.cls-16{fill:#d38a4f;}.cls-17{fill:#92eaff;}</style></defs><rect class="cls-1" x="400.65" y="924.85" width="2454.11" height="1046.57" rx="128.24"/><circle class="cls-2" cx="716.28" cy="1185" r="106.07"/><circle class="cls-2" cx="1093.53" cy="2461.07" r="106.07" transform="translate(-1797.2 676.57) rotate(-45)"/><circle class="cls-2" cx="1405.03" cy="1185" r="106.07"/><circle class="cls-2" cx="1782.28" cy="2461.07" r="106.07" transform="translate(-1595.47 1163.59) rotate(-45)"/><circle class="cls-2" cx="1433.53" cy="2236.07" r="106.07" transform="translate(-1538.52 851.09) rotate(-45)"/><circle class="cls-2" cx="2539.13" cy="1185" r="106.07"/><circle class="cls-2" cx="2916.38" cy="2461.07" r="106.07" transform="translate(-1263.3 1965.52) rotate(-45)"/><circle class="cls-2" cx="1850.38" cy="1185" r="106.07"/><circle class="cls-2" cx="2227.63" cy="2461.07" r="106.07" transform="translate(-1465.03 1478.51) rotate(-45)"/><circle class="cls-2" cx="2576.38" cy="2236.07" r="106.07" transform="translate(-1203.79 1659.21) rotate(-45)"/><g class="cls-3"><path class="cls-4" d="M3170,1760.74v232.81c0,286.59-232.32,518.92-518.91,518.92H1358.86c-286.58,0-518.91-232.33-518.91-518.92V1760.74A128.19,128.19,0,0,0,777.9,1870.6v790.09a128.25,128.25,0,0,0,128.24,128.24H3103.76A128.25,128.25,0,0,0,3232,2660.69V1870.6A128.18,128.18,0,0,0,3170,1760.74Z" transform="translate(-377.25 -817.5)"/></g><g class="cls-5"><path class="cls-6" d="M3103.76,1742.35H906.14A128.25,128.25,0,0,0,777.9,1870.6v50a128.25,128.25,0,0,1,128.24-128.25H3103.76A128.25,128.25,0,0,1,3232,1920.6v-50A128.25,128.25,0,0,0,3103.76,1742.35Z" transform="translate(-377.25 -817.5)"/></g><path class="cls-4" d="M3103.76,2806.43H906.14c-80.36,0-145.74-65.38-145.74-145.75V1870.6c0-80.37,65.38-145.75,145.74-145.75H3103.76c80.37,0,145.75,65.38,145.75,145.75v790.08C3249.51,2741.05,3184.13,2806.43,3103.76,2806.43ZM906.14,1759.85A110.87,110.87,0,0,0,795.4,1870.6v790.08a110.87,110.87,0,0,0,110.74,110.75H3103.76a110.87,110.87,0,0,0,110.75-110.75V1870.6a110.87,110.87,0,0,0-110.75-110.75Z" transform="translate(-377.25 -817.5)"/><rect class="cls-1" x="407.94" y="1873.56" width="2439.54" height="491.08"/><g class="cls-3"><path class="cls-4" d="M3137.81,2691.06v121.26c0,172.5-139.83,312.33-312.32,312.33H1184.42c-172.49,0-312.32-139.83-312.32-312.33V2691.06H785.19v491.08H3224.72V2691.06Z" transform="translate(-377.25 -817.5)"/></g><g class="cls-3"><path class="cls-4" d="M2167.62,2679.29H1842.19s143.69,342.12-95.16,440.43c0,0,145.37,55,257.87-109,112.51,164,257.88,109,257.88,109C2023.92,3021.41,2167.62,2679.29,2167.62,2679.29Z" transform="translate(-377.25 -817.5)"/></g><path class="cls-4" d="M3224.72,3199.64H785.19a17.49,17.49,0,0,1-17.5-17.5V2691.06a17.5,17.5,0,0,1,17.5-17.5H3224.72a17.5,17.5,0,0,1,17.5,17.5v491.08A17.49,17.49,0,0,1,3224.72,3199.64Zm-2422-35H3207.22V2708.56H802.69Z" transform="translate(-377.25 -817.5)"/><path class="cls-7" d="M2756.9,1754l-35.35,140.65c-105,194.2-270.05,267.65-360.05,294.3-38.85,11.5-63.7,14.25-63.7,14.25-47.65-67.5-79.3-194-79.3-194,162.35-43,211.15-178.8,211.15-178.8,34.25-35.25,70.3-58.2,105.5-72.65C2650.8,1710.1,2756.9,1754,2756.9,1754Z" transform="translate(-377.25 -817.5)"/><g class="cls-3"><path class="cls-4" d="M2756.9,1754l-35.35,140.65c-105,194.2-270.05,267.65-360.05,294.3.3-14.6-.25-70.25-21.65-122.55a73.94,73.94,0,0,1,42,17.38,35,35,0,0,0,43.75,1.56c67-50.2,226.92-191.85,109.55-327.64C2650.8,1710.1,2756.9,1754,2756.9,1754Z" transform="translate(-377.25 -817.5)"/></g><path class="cls-4" d="M2297.81,2220.71a17.51,17.51,0,0,1-14.29-7.4c-49-69.38-80.65-194.62-82-199.92a17.49,17.49,0,0,1,12.5-21.15c151.68-40.18,198.66-166.53,199.11-167.8a17.57,17.57,0,0,1,3.92-6.28c80.09-82.4,169.93-99.93,231.2-100.13h1.07c65.66,0,112.3,19,114.26,19.82a17.5,17.5,0,0,1,10.28,20.44l-35.36,140.62A17.59,17.59,0,0,1,2737,1903c-79.87,147.73-194.17,226.18-276,266-88.84,43.21-158.31,51.34-161.22,51.67A18.14,18.14,0,0,1,2297.81,2220.71Zm-57.9-199.54c9.53,33.68,33.83,112.2,66.22,163,50.08-9,271.1-61.29,399-296L2736,1765.29c-43.39-13.24-176.89-40.72-291.4,74.76C2435.43,1862.68,2383,1975.94,2239.91,2021.17Z" transform="translate(-377.25 -817.5)"/><path class="cls-7" d="M1791.35,2009.15s-31.65,126.55-79.3,194c0,0-26.5-2.95-67.55-15.4-90.8-27.6-252.7-101.65-356.2-293.15L1253,1754s62.1-25.7,143-16.4c57,6.45,123.5,30.3,184.2,92.75C1580.2,1830.35,1629,1966.15,1791.35,2009.15Z" transform="translate(-377.25 -817.5)"/><g class="cls-3"><path class="cls-4" d="M1668.55,2070.1c-14.3,37.25-19.35,112.55-19.35,112.55l-4.7,5.15c-90.8-27.6-252.7-101.65-356.2-293.15L1253,1754s62.1-25.7,143-16.4c1.55,5.25,3,10.75,4.3,16.4C1480,2092.3,1668.55,2070.1,1668.55,2070.1Z" transform="translate(-377.25 -817.5)"/></g><path class="cls-4" d="M1712.05,2220.71a18.19,18.19,0,0,1-2-.1c-2.91-.33-72.37-8.46-161.21-51.67-81.82-39.79-196.12-118.24-276-266a18.09,18.09,0,0,1-1.58-4.06L1236,1758.29a17.51,17.51,0,0,1,10.27-20.44c2-.81,48.62-19.82,114.27-19.82h1.07c61.27.2,151.11,17.73,231.2,100.13a17.57,17.57,0,0,1,3.92,6.28c1.88,5.16,48.17,127.82,199.11,167.8a17.49,17.49,0,0,1,12.5,21.15c-1.32,5.3-33,130.54-82,199.92A17.51,17.51,0,0,1,1712.05,2220.71Zm-407.32-332.48c128.2,235.24,348.94,287.07,399,296,32.39-50.82,56.69-129.35,66.23-163-143.07-45.23-195.53-158.49-204.73-181.12-114.49-115.47-248-88-291.4-74.76Z" transform="translate(-377.25 -817.5)"/><path class="cls-7" d="M2342.25,2434.65s-134.65,51.4-337.35,51.4-337.3-51.4-337.3-51.4c-44.7-176.8-7.45-333.3-.95-358.15.15-.5.25-.95.35-1.35a12.52,12.52,0,0,0,.35-1.3.71.71,0,0,0,.1-.3c0-.15.1-.35.15-.5s30.5-127,337.3-127,337.35,127,337.35,127S2391,2241.8,2342.25,2434.65Z" transform="translate(-377.25 -817.5)"/><g class="cls-3"><path class="cls-4" d="M2343.15,2076.5c-.1-.45-.25-.9-.35-1.35a12.52,12.52,0,0,1-.35-1.3.71.71,0,0,1-.1-.3c0-.15-.1-.35-.15-.5s-14.4,310.15-337.3,310.15-337.3-310.15-337.3-310.15-.1.35-.15.5a.71.71,0,0,1-.1.3,12.52,12.52,0,0,1-.35,1.3c-.1.45-.25.9-.35,1.35-6.5,24.85-43.75,181.35.95,358.15,0,0,134.65,51.4,337.3,51.4s337.3-51.4,337.3-51.4C2386.9,2257.85,2349.65,2101.35,2343.15,2076.5Z" transform="translate(-377.25 -817.5)"/></g><path class="cls-8" d="M2004.93,2066.42h124.13s-11.25,86.44-124.13,86.44-124.13-86.44-124.13-86.44Z" transform="translate(-377.25 -817.5)"/><path class="cls-4" d="M2004.93,2170.36c-126.79,0-141.35-100.66-141.48-101.68a17.49,17.49,0,0,1,17.35-19.76h248.26a17.51,17.51,0,0,1,17.35,19.76C2146.28,2069.7,2131.71,2170.36,2004.93,2170.36Zm-100.06-86.44c10.47,21.09,36.57,51.44,100.06,51.44s89.56-30.31,100-51.44Z" transform="translate(-377.25 -817.5)"/><path class="cls-4" d="M1671.89,2074.28c-4.11,29.81-6.94,59.94-8.8,89.85s-2.72,59.88-2,89.73l.08,11.19.52,11.18c.39,7.45.57,14.91,1.14,22.33,1.39,14.84,2.33,29.72,4.61,44.43,3.51,29.57,10,58.58,16.72,87.46l-10.48-11.79c12.29,4.4,26.07,8.51,39.4,12.2,13.48,3.67,27.06,7.14,40.77,10.12q41,9.29,82.82,15.44a1159.53,1159.53,0,0,0,336.41-.23q41.72-6.2,82.78-15.58c13.69-3,27.26-6.52,40.72-10.22,13.31-3.72,27.07-7.86,39.33-12.29h0l-10.85,12.21,4.83-21.69c1.69-7.22,3.44-14.42,4.57-21.76l3.91-21.91c1.38-7.29,2.13-14.69,3.24-22,4.2-29.43,6.21-59.2,7.08-89,.08-7.46.46-14.93.36-22.4l-.2-22.44c-.56-14.94-1.21-29.91-2.28-44.87-2.06-29.88-5-60-8.93-89.79l0-.24a4.8,4.8,0,0,1,9.22-2.41c11.54,29,18.64,59.14,23.62,89.67a700.25,700.25,0,0,1,8.4,92.43l.36,11.63-.07,11.64c-.11,7.76,0,15.53-.36,23.29-1,15.5-1.49,31.06-3.38,46.52-2.63,31.05-8.87,61.72-16,92.09a17.12,17.12,0,0,1-10.6,12.12l-.25.1h-.06c-14.58,5.33-28.2,9.4-42.36,13.44-7,1.94-14.06,3.9-21.13,5.63s-14.11,3.55-21.21,5.12q-42.54,9.61-85.61,15.85a1213.4,1213.4,0,0,1-346.61-.24q-43-6.33-85.56-16c-14.17-3.21-28.25-6.92-42.29-10.86s-27.74-8.17-42.29-13.52l-.12,0a16.7,16.7,0,0,1-10.37-11.75c-7-30.38-13-61.05-15.81-92-2-15.44-2.56-31-3.59-46.46-.38-7.75-.37-15.52-.58-23.27l-.23-11.63.22-11.63c.21-15.5,1.32-31,2.44-46.4,1.76-15.39,3.32-30.78,6.09-46,5.17-30.5,12.34-60.57,23.74-89.61a4.51,4.51,0,0,1,8.66,2.26Z" transform="translate(-377.25 -817.5)"/><path class="cls-9" d="M1955.5,2982.05c-39.3,49.35-121.7,139.2-199.85,138-65-.95-84.05-37.4-85.2-74.4-.75-24.3,6.2-48.85,12.9-63.85C1700.2,2944.1,1670,2905,1670,2905c68.15-13.9,126.9-65.1,162.75-103.45,23.45-25.1,37-44.7,37-44.7,74.7,38.2,100.75,90.85,108.85,131.6A114.41,114.41,0,0,1,1955.5,2982.05Z" transform="translate(-377.25 -817.5)"/><g class="cls-3"><path class="cls-4" d="M1955.5,2982.05c-39.3,49.35-121.7,139.2-199.85,138-65-.95-84.05-37.4-85.2-74.4,7.5,4.55,99.65,58,184.85-29.25,78-79.85,81-165.4-22.6-214.9,23.45-25.1,37-44.7,37-44.7,74.7,38.2,100.75,90.85,108.85,131.6A114.41,114.41,0,0,1,1955.5,2982.05Z" transform="translate(-377.25 -817.5)"/></g><path class="cls-4" d="M1757.16,3137.6h-1.75c-41.56-.62-71.19-14.36-88.08-40.83-25.29-39.65-11.88-95.36,0-122,12.3-27.54-11.06-58.77-11.3-59.08a17.54,17.54,0,0,1,10.39-27.8c104.42-21.33,188.13-139.79,189-141a17.51,17.51,0,0,1,22.32-5.58c82.32,42.11,109.63,101.4,118,143.73A131.81,131.81,0,0,1,1969.19,2993C1926.05,3047.14,1841.38,3137.6,1757.16,3137.6Zm-60.72-221.49c8.17,18.17,15.17,45.4,2.88,72.9-9.8,21.95-18.55,63.73-2.48,88.92,10.16,15.93,30,24.23,59.09,24.66h1.26c72.14,0,153-91.79,184.63-131.44a97,97,0,0,0,19.64-79.31c-6.46-32.52-26.93-77.44-86.75-112.34C1850.63,2810.37,1783.12,2888.33,1696.44,2916.11Z" transform="translate(-377.25 -817.5)"/><path class="cls-9" d="M2054.3,2982.05c39.3,49.35,121.7,139.2,199.85,138,65-.95,84-37.4,85.2-74.4.75-24.3-6.2-48.85-12.9-63.85-16.85-37.75,13.4-76.85,13.4-76.85-68.15-13.9-126.9-65.1-162.75-103.45-23.45-25.1-37-44.7-37-44.7-74.7,38.2-100.75,90.85-108.85,131.6A114.41,114.41,0,0,0,2054.3,2982.05Z" transform="translate(-377.25 -817.5)"/><g class="cls-3"><path class="cls-4" d="M2054.3,2982.05c39.3,49.35,121.7,139.2,199.85,138,65-.95,84-37.4,85.2-74.4-7.5,4.55-99.65,58-184.85-29.25-77.95-79.85-81-165.4,22.6-214.9-23.45-25.1-37-44.7-37-44.7-74.7,38.2-100.75,90.85-108.85,131.6A114.41,114.41,0,0,0,2054.3,2982.05Z" transform="translate(-377.25 -817.5)"/></g><path class="cls-4" d="M2252.65,3137.6c-84.23,0-168.89-90.46-212-144.64A131.84,131.84,0,0,1,2014,2885c8.42-42.32,35.73-101.62,118-143.73a17.52,17.52,0,0,1,22.34,5.59c.82,1.19,84.53,119.65,188.95,141a17.5,17.5,0,0,1,10.38,27.81c-.53.7-23.52,31.71-11.29,59.07,11.91,26.66,25.33,82.37,0,122-16.89,26.47-46.53,40.21-88.08,40.83ZM2135.1,2779.51c-59.83,34.91-80.29,79.83-86.75,112.34a96.89,96.89,0,0,0,19.64,79.31c31.57,39.65,112.49,131.44,184.62,131.44h1.27c29-.43,48.93-8.73,59.09-24.66,16.07-25.19,7.32-67-2.49-88.92-12.29-27.5-5.28-54.73,2.89-72.9C2226.69,2888.33,2159.17,2810.37,2135.1,2779.51Z" transform="translate(-377.25 -817.5)"/><path class="cls-10" d="M3021.61,2434.51c-15.49,26.87-41.44,51.06-84.13,64.56l-18.67-57.94s30.35-9.06,49.33-43c8.59-15.38,14.86-35.87,14.94-62.93a29.9,29.9,0,0,1,27.9-29.62c.71-.05,1.41-.06,2.11-.06a30,30,0,0,1,29.93,28.59C3044.28,2360.46,3041.72,2399.73,3021.61,2434.51Z" transform="translate(-377.25 -817.5)"/><path class="cls-6" d="M3021.61,2434.51c-27.54-5.6-43.86-20.07-53.47-36.41,8.59-15.38,14.86-35.87,14.94-62.93a29.9,29.9,0,0,1,27.9-29.62c.71-.05,1.41-.06,2.11-.06a30,30,0,0,1,29.93,28.59C3044.28,2360.46,3041.72,2399.73,3021.61,2434.51Z" transform="translate(-377.25 -817.5)"/><g class="cls-3"><path class="cls-4" d="M3043,2334.08a30,30,0,0,0-28.05-28.5,29.94,29.94,0,0,1,5.16,15.41c1.25,26.39-1.31,65.66-21.42,100.43-13.35,23.17-34.5,44.34-67.44,58.39l6.21,19.26c42.69-13.5,68.64-37.69,84.13-64.56C3041.72,2399.73,3044.28,2360.46,3043,2334.08Z" transform="translate(-377.25 -817.5)"/></g><path class="cls-4" d="M2937.47,2509.07a10,10,0,0,1-9.52-6.94l-18.65-57.94a10,10,0,0,1,6.62-12.63c2.38-.74,56.94-18.57,57.16-96.42a40,40,0,0,1,37.21-39.56,40,40,0,0,1,42.72,38c2.46,51.29-8.88,142.24-112.52,175A10,10,0,0,1,2937.47,2509.07Zm-6.35-62.37,12.74,39.57c82.15-31.15,91.28-107.77,89.17-151.7a20,20,0,0,0-40,.63C2992.87,2407.48,2950.48,2437,2931.12,2446.7Z" transform="translate(-377.25 -817.5)"/><path class="cls-10" d="M2643.44,2581.17a240.39,240.39,0,0,1-4.76,47.45,65.84,65.84,0,0,1-46.67,50.55,179.27,179.27,0,0,1-87.49,2.43,40.73,40.73,0,0,1-31.58-34.44,65.5,65.5,0,0,1-.16-15.54c4.51-39.37,46.74-51.74,46.74-51.74q-2.47-5.15-4.51-10.09a151.17,151.17,0,0,1-6.72-20.12,110.64,110.64,0,0,1-3.52-36.08,92.84,92.84,0,0,1,4.5-22.57c8.14-24.45,25.28-41.73,40.2-52.82a33.65,33.65,0,0,1,46.5,6.37C2633.2,2491.92,2643.45,2541.23,2643.44,2581.17Z" transform="translate(-377.25 -817.5)"/><path class="cls-6" d="M2643.44,2581.17a240.39,240.39,0,0,1-4.76,47.45,65.84,65.84,0,0,1-46.67,50.55,179.27,179.27,0,0,1-87.49,2.43,40.73,40.73,0,0,1-31.58-34.44c-6.51-51.72,46.58-67.28,46.58-67.28S2572.8,2618.12,2643.44,2581.17Z" transform="translate(-377.25 -817.5)"/><path class="cls-10" d="M2545.25,2553.88a90,90,0,0,1-30.24,15.91,151.17,151.17,0,0,1-6.72-20.12,267.13,267.13,0,0,0,35.49.48A2.11,2.11,0,0,1,2545.25,2553.88Z" transform="translate(-377.25 -817.5)"/><path class="cls-10" d="M2547.84,2501.89c-7.27,4.21-22.07,11-43.07,11.7a92.84,92.84,0,0,1,4.5-22.57A272.72,272.72,0,0,0,2547,2498,2.11,2.11,0,0,1,2547.84,2501.89Z" transform="translate(-377.25 -817.5)"/><g class="cls-3"><path class="cls-4" d="M2643.44,2581.17a240.39,240.39,0,0,1-4.76,47.45,65.84,65.84,0,0,1-46.67,50.55,179.27,179.27,0,0,1-87.49,2.43,40.73,40.73,0,0,1-31.58-34.44,65.5,65.5,0,0,1-.16-15.54c9.78,9.58,24.56,18.07,46.74,23.17,79.38,18.22,61.7-57.52,61.7-57.52-44.69,1.36-61.7-17.39-61.7-17.39,94.44,6.58,29.95-141.68,29.95-141.68a33.65,33.65,0,0,1,46.5,6.37C2633.2,2491.92,2643.45,2541.23,2643.44,2581.17Z" transform="translate(-377.25 -817.5)"/></g><g class="cls-5"><path class="cls-6" d="M2481.12,2658.61a65,65,0,0,1-.17-15.54c4.52-39.37,46.75-51.74,46.75-51.74q-2.47-5.14-4.51-10.09a151.27,151.27,0,0,1-6.73-20.12A110.89,110.89,0,0,1,2513,2525a92.84,92.84,0,0,1,4.5-22.57c8.14-24.46,25.28-41.73,40.2-52.82a33.65,33.65,0,0,1,46.5,6.37c.82,1,1.6,2.07,2.4,3.11-3.26-4.86-6.77-9.72-10.58-14.56a33.65,33.65,0,0,0-46.5-6.37c-14.92,11.09-32.06,28.37-40.2,52.82a92.84,92.84,0,0,0-4.5,22.57,110.64,110.64,0,0,0,3.52,36.08,151.17,151.17,0,0,0,6.72,20.12q2,5,4.51,10.09s-42.23,12.37-46.74,51.74a65.5,65.5,0,0,0,.16,15.54,40.16,40.16,0,0,0,11.73,23.58A39.9,39.9,0,0,1,2481.12,2658.61Z" transform="translate(-377.25 -817.5)"/></g><path class="cls-4" d="M2492.58,2684.27a49.07,49.07,0,0,1-2.17-12.1,63.09,63.09,0,0,1,.34-11.67c.86-7.68,3.08-15.29,7.58-21.72a2.33,2.33,0,0,1,4.18.85l0,.09c1.54,7.31,2.48,13.81,3.92,20.18q1.07,4.76,2.39,9.3c.83,2.91,1.86,6.27,2.6,8.42l.14.38a10,10,0,0,1-18.91,6.53A2.67,2.67,0,0,1,2492.58,2684.27Z" transform="translate(-377.25 -817.5)"/><path class="cls-4" d="M2530.61,2687.07a48.91,48.91,0,0,1-2.17-12.1,63.14,63.14,0,0,1,.34-11.67c.86-7.68,3.08-15.29,7.58-21.71a2.33,2.33,0,0,1,4.18.85l0,.08c1.54,7.32,2.48,13.81,3.92,20.19.7,3.16,1.51,6.27,2.39,9.3s1.86,6.27,2.6,8.41l.13.38a10,10,0,1,1-18.9,6.53A2.67,2.67,0,0,1,2530.61,2687.07Z" transform="translate(-377.25 -817.5)"/><path class="cls-4" d="M2525.34,2571.74a57.32,57.32,0,0,0,8.92,7.48,99,99,0,0,0,10.56,6.52,86.6,86.6,0,0,0,23.76,8.58l.09,0a2.28,2.28,0,0,1-.44,4.52c-4.47,0-9,.08-13.54-.33a132.93,132.93,0,0,1-13.63-1.82,112.57,112.57,0,0,1-13.58-3.35,94,94,0,0,1-13.77-5.35l-.46-.22a10.22,10.22,0,0,1,9.11-18.29A10.42,10.42,0,0,1,2525.34,2571.74Z" transform="translate(-377.25 -817.5)"/><path class="cls-4" d="M2543.29,2695.87a186.27,186.27,0,0,1-41-4.52,50.83,50.83,0,0,1-39.3-42.94c-5.08-40.38,21.84-64,43.06-74-32.12-77,9.11-123.14,37.42-144.2h0a43.41,43.41,0,0,1,60.34,8.21c57.7,73.39,52.74,151.93,44.65,192.21a75.46,75.46,0,0,1-53.78,58.19A190.78,190.78,0,0,1,2543.29,2695.87Zm26.13-254.3a23.35,23.35,0,0,0-14,4.66h0c-30,22.3-59,62.84-26.9,129.3a10,10,0,0,1-6.2,13.94c-1.8.54-44.81,14-39.46,56.44a30.76,30.76,0,0,0,23.86,25.93,169.16,169.16,0,0,0,82.6-2.31,55.55,55.55,0,0,0,39.55-42.87c9.06-45.08,9.34-112.19-40.77-175.91A23.74,23.74,0,0,0,2569.42,2441.57Zm-20-3.37h0Z" transform="translate(-377.25 -817.5)"/><path class="cls-10" d="M2838.77,2581.17a240.39,240.39,0,0,0,4.76,47.45,65.83,65.83,0,0,0,46.66,50.55,179.27,179.27,0,0,0,87.49,2.43,40.73,40.73,0,0,0,31.58-34.44,65,65,0,0,0,.17-15.54c-4.52-39.37-46.75-51.74-46.75-51.74q2.47-5.15,4.52-10.09a152.62,152.62,0,0,0,6.72-20.12,111.19,111.19,0,0,0,3.52-36.08,93.79,93.79,0,0,0-4.5-22.57c-8.15-24.45-25.29-41.73-40.21-52.82a33.65,33.65,0,0,0-46.5,6.37C2849,2491.92,2838.75,2541.23,2838.77,2581.17Z" transform="translate(-377.25 -817.5)"/><path class="cls-6" d="M2838.77,2581.17a240.39,240.39,0,0,0,4.76,47.45,65.83,65.83,0,0,0,46.66,50.55,179.27,179.27,0,0,0,87.49,2.43,40.73,40.73,0,0,0,31.58-34.44c6.51-51.72-46.58-67.28-46.58-67.28S2909.41,2618.12,2838.77,2581.17Z" transform="translate(-377.25 -817.5)"/><path class="cls-10" d="M2937,2553.88a90.09,90.09,0,0,0,30.25,15.91,152.62,152.62,0,0,0,6.72-20.12,267.18,267.18,0,0,1-35.49.48A2.11,2.11,0,0,0,2937,2553.88Z" transform="translate(-377.25 -817.5)"/><path class="cls-10" d="M2934.37,2501.89c7.26,4.21,22.06,11,43.07,11.7a93.79,93.79,0,0,0-4.5-22.57,272.59,272.59,0,0,1-37.74,6.95A2.11,2.11,0,0,0,2934.37,2501.89Z" transform="translate(-377.25 -817.5)"/><g class="cls-3"><path class="cls-4" d="M2838.77,2581.17a240.39,240.39,0,0,0,4.76,47.45,65.83,65.83,0,0,0,46.66,50.55,179.27,179.27,0,0,0,87.49,2.43,40.73,40.73,0,0,0,31.58-34.44,65,65,0,0,0,.17-15.54c-9.78,9.58-24.57,18.07-46.75,23.17-79.38,18.22-61.69-57.52-61.69-57.52,44.68,1.36,61.69-17.39,61.69-17.39-94.44,6.58-29.95-141.68-29.95-141.68a33.65,33.65,0,0,0-46.5,6.37C2849,2491.92,2838.75,2541.23,2838.77,2581.17Z" transform="translate(-377.25 -817.5)"/></g><g class="cls-5"><path class="cls-6" d="M3001.09,2658.61a65.5,65.5,0,0,0,.16-15.54c-4.51-39.37-46.75-51.74-46.75-51.74q2.49-5.14,4.52-10.09a152.62,152.62,0,0,0,6.72-20.12,110.91,110.91,0,0,0,3.52-36.08,93.31,93.31,0,0,0-4.5-22.57c-8.15-24.46-25.29-41.73-40.2-52.82a33.66,33.66,0,0,0-46.51,6.37c-.81,1-1.6,2.07-2.39,3.11q4.89-7.29,10.57-14.56a33.65,33.65,0,0,1,46.5-6.37c14.92,11.09,32.06,28.37,40.21,52.82a93.79,93.79,0,0,1,4.5,22.57,111.19,111.19,0,0,1-3.52,36.08,152.62,152.62,0,0,1-6.72,20.12q-2,5-4.52,10.09s42.23,12.37,46.75,51.74a65,65,0,0,1-.17,15.54,40.09,40.09,0,0,1-11.72,23.58A40.18,40.18,0,0,0,3001.09,2658.61Z" transform="translate(-377.25 -817.5)"/></g><path class="cls-4" d="M2970.76,2677.62c.74-2.15,1.78-5.51,2.6-8.42s1.69-6.13,2.4-9.3c1.43-6.37,2.37-12.87,3.92-20.18v-.08a2.32,2.32,0,0,1,4.18-.86c4.5,6.43,6.73,14,7.59,21.72a64,64,0,0,1,.33,11.67,49.07,49.07,0,0,1-2.17,12.1,10,10,0,1,1-19.08-6,1.42,1.42,0,0,0,.07-.22Z" transform="translate(-377.25 -817.5)"/><path class="cls-4" d="M2932.73,2680.42c.74-2.14,1.78-5.51,2.6-8.41s1.69-6.14,2.4-9.3c1.44-6.38,2.38-12.87,3.92-20.19l0-.08a2.31,2.31,0,0,1,4.17-.85c4.5,6.42,6.73,14,7.59,21.71a64.93,64.93,0,0,1,.34,11.67,49.86,49.86,0,0,1-2.17,12.1,10,10,0,0,1-19.09-6c0-.08,0-.15.08-.22Z" transform="translate(-377.25 -817.5)"/><path class="cls-4" d="M2968.5,2588a94.84,94.84,0,0,1-13.77,5.35,113,113,0,0,1-13.58,3.35,133.12,133.12,0,0,1-13.64,1.82c-4.53.41-9.07.35-13.53.33a2.28,2.28,0,0,1-.44-4.52l.09,0a86.72,86.72,0,0,0,23.76-8.58,98.88,98.88,0,0,0,10.55-6.52,57.43,57.43,0,0,0,8.93-7.48,10.21,10.21,0,0,1,15.06,13.8,10,10,0,0,1-2.94,2.23Z" transform="translate(-377.25 -817.5)"/><path class="cls-4" d="M2938.91,2695.87a190.78,190.78,0,0,1-51.42-7.08,75.43,75.43,0,0,1-53.77-58.19c-8.1-40.28-13.06-118.82,44.65-192.21a43.41,43.41,0,0,1,60.34-8.21c28.31,21.06,69.53,67.21,37.41,144.2,21.22,10,48.14,33.65,43.06,74a50.82,50.82,0,0,1-39.3,42.94A186.2,186.2,0,0,1,2938.91,2695.87Zm-26.12-254.3a23.76,23.76,0,0,0-18.7,9.18c-50.1,63.72-49.82,130.83-40.76,175.91a55.54,55.54,0,0,0,39.54,42.87,169.16,169.16,0,0,0,82.6,2.31,30.76,30.76,0,0,0,23.87-25.93c5.38-42.78-37.64-55.9-39.47-56.44a10,10,0,0,1-6.19-13.94c32.08-66.46,3.08-107-26.91-129.3h0A23.34,23.34,0,0,0,2912.79,2441.57Z" transform="translate(-377.25 -817.5)"/><path class="cls-10" d="M2889.75,2584a23.24,23.24,0,0,0,5.45,19.92c5.75,6.59,13.38,17.27,17.1,30.88,6.56,23.95-9.09,48.41-33.43,53.31-25.89,5.2-64.93,8.66-105-3.86a53.24,53.24,0,0,1-29.32-21.91c-.51-.76-1-1.57-1.44-2.38a16,16,0,0,1-2-7.74,16,16,0,0,1-2,7.74c-.46.81-.94,1.62-1.44,2.38a53.23,53.23,0,0,1-29.33,21.91c-40.07,12.52-79.12,9.06-105,3.86-24.34-4.9-40-29.36-33.43-53.31.39-1.44.83-2.85,1.33-4.22a81.74,81.74,0,0,1,15.78-26.66,23.27,23.27,0,0,0,5.45-19.92c-.46-2.28-1-4.48-1.53-6.64,0-.07,0-.13-.06-.22-.21-.91-.46-1.83-.7-2.71a.32.32,0,0,1,0-.13c-1.29-4.73-2.73-9.16-4.23-13.27a234.16,234.16,0,0,0-10.14-23.29s0-.05,0-.06a214.55,214.55,0,0,1-11.79-29.69c-.24-.82-.51-1.62-.74-2.42a278.1,278.1,0,0,1-6.9-27.77c-11.48-59.48,1.74-101.94,10.18-121.25a89.8,89.8,0,0,1,6-11.72s8.26-11.74,38.35-22.47c25.3-9,66.05-17.35,130.31-17.35,140.67,0,168.67,39.82,168.67,39.82a91.4,91.4,0,0,1,6,11.72c9.8,22.45,26.05,76.13,2.53,151.44a212.48,212.48,0,0,1-11.82,29.75C2902.1,2546.65,2894,2563.18,2889.75,2584Z" transform="translate(-377.25 -817.5)"/><path class="cls-6" d="M2871.41,2322.35c-25.3-9-66-17.35-130.31-17.35s-105,8.31-130.31,17.35c-25.22,56.37-3.81,109.52-3.81,109.52,29.1,78.17,134.12,103.05,134.12,103.05s105-24.88,134.12-103.05C2875.22,2431.87,2896.63,2378.72,2871.41,2322.35Z" transform="translate(-377.25 -817.5)"/><path class="cls-6" d="M2741.1,2652.21a16,16,0,0,1-2,7.74c-.46.81-.94,1.62-1.44,2.38a53.23,53.23,0,0,1-29.33,21.91c-40.07,12.52-79.12,9.06-105,3.86-24.34-4.9-40-29.36-33.43-53.31,3.73-13.61,11.35-24.29,17.11-30.88a23.27,23.27,0,0,0,5.45-19.92s28.19,59.24,104.41,24C2696.87,2608,2741.1,2593.39,2741.1,2652.21Z" transform="translate(-377.25 -817.5)"/><path class="cls-6" d="M2741.1,2652.21a16,16,0,0,0,2,7.74c.46.81.93,1.62,1.44,2.38a53.24,53.24,0,0,0,29.32,21.91c40.08,12.52,79.12,9.06,105,3.86,24.34-4.9,40-29.36,33.43-53.31-3.72-13.61-11.35-24.29-17.1-30.88a23.24,23.24,0,0,1-5.45-19.92s-28.2,59.24-104.42,24C2785.33,2608,2741.1,2593.39,2741.1,2652.21Z" transform="translate(-377.25 -817.5)"/><path class="cls-10" d="M2618.89,2483.77c-7.85,6.74-26.25,19.42-55.7,21.79a278.1,278.1,0,0,1-6.9-27.77,277.3,277.3,0,0,0,61,2.29A2.11,2.11,0,0,1,2618.89,2483.77Z" transform="translate(-377.25 -817.5)"/><path class="cls-10" d="M2624.5,2542c-6.2,5.33-19,14.36-38.6,19.07a234.16,234.16,0,0,0-10.14-23.29s0-.05,0-.06a275.17,275.17,0,0,0,47.22.58A2.11,2.11,0,0,1,2624.5,2542Z" transform="translate(-377.25 -817.5)"/><path class="cls-10" d="M2863.32,2483.77c7.85,6.74,26.25,19.42,55.69,21.79a272.72,272.72,0,0,0,6.9-27.77,277.27,277.27,0,0,1-61,2.29A2.11,2.11,0,0,0,2863.32,2483.77Z" transform="translate(-377.25 -817.5)"/><path class="cls-10" d="M2857.71,2542c6.2,5.33,19,14.36,38.6,19.07a231.82,231.82,0,0,1,10.14-23.29s0-.05,0-.06a275.15,275.15,0,0,1-47.22.58A2.11,2.11,0,0,0,2857.71,2542Z" transform="translate(-377.25 -817.5)"/><g class="cls-3"><path class="cls-4" d="M2912.3,2634.79c-.39-1.44-.83-2.85-1.32-4.22-36.77,61.7-121.36,34.53-132.49,21.64-11.92-13.79,6.84-44.21,6.84-44.21,81.63,30.06,102-17.76,105.94-30.65,0-.07.05-.13.07-.22.42-1.42.63-2.38.7-2.71a.41.41,0,0,0,0-.13c-33.46,21.95-55.22,21.8-69.32,13.47-22.16-13.09-22.32-45-1.25-59.75,56.49-39.63,53.72-96.14,53.72-96.14-29.74,32-66.81,50.06-94.44,59.83a118.88,118.88,0,0,1-79.36,0c-27.63-9.77-64.7-27.8-94.44-59.83,0,0-2.77,56.51,53.72,96.14,21.07,14.78,20.92,46.66-1.24,59.75-14.1,8.33-35.86,8.48-69.33-13.47a.32.32,0,0,0,0,.13,27.63,27.63,0,0,0,.7,2.71c0,.09.05.15.06.22,3.91,12.89,24.31,60.71,105.94,30.65,0,0,18.77,30.42,6.84,44.21-11.12,12.89-95.72,40.06-132.48-21.64-.5,1.37-.94,2.78-1.33,4.22-6.56,23.95,9.09,48.41,33.43,53.31,25.89,5.2,64.94,8.66,105-3.86a53.23,53.23,0,0,0,29.33-21.91c.48-.73.94-1.49,1.37-2.27a16,16,0,0,0,2.06-7.85,16,16,0,0,0,2.06,7.85c.44.78.89,1.54,1.38,2.27a53.24,53.24,0,0,0,29.32,21.91c40.08,12.52,79.12,9.06,105,3.86C2903.21,2683.2,2918.86,2658.74,2912.3,2634.79Z" transform="translate(-377.25 -817.5)"/></g><g class="cls-3"><path class="cls-4" d="M2915.74,2361.54c-41.56,21.44-99.69,40.64-174.64,40.64S2608,2383,2566.47,2361.54a89.8,89.8,0,0,1,6-11.72s8.26-11.74,38.35-22.47c25.3-9,66.05-17.35,130.31-17.35,140.67,0,168.67,39.82,168.67,39.82A91.4,91.4,0,0,1,2915.74,2361.54Z" transform="translate(-377.25 -817.5)"/></g><path class="cls-4" d="M2601,2576.2c.53,1.27,1.55,3.58,2.54,5.38.94,2,2.2,3.74,3.29,5.61a55.31,55.31,0,0,0,8.38,9.67,49.71,49.71,0,0,0,22.51,11.56c8.59,2.35,18.17,1.6,27.8,1,4.81-.91,9.78-1.25,14.85-1.82a107,107,0,0,1,15.73-1.59h.2a2.2,2.2,0,0,1,1.44,3.89,100.39,100.39,0,0,1-13.65,9.3,65,65,0,0,1-7.59,3.32c-2.57,1-5.19,2-7.84,2.88-2.75.62-5.52,1.22-8.32,1.7a47.89,47.89,0,0,1-8.51,1.14l-8.75.42c-2.95-.11-5.93-.57-8.91-.87a63.32,63.32,0,0,1-45.07-29.28,69.51,69.51,0,0,1-4.26-8.11,54.3,54.3,0,0,1-3.19-9.17,9.95,9.95,0,0,1,18.78-6.44Z" transform="translate(-377.25 -817.5)"/><path class="cls-4" d="M2739.21,2544.74a161,161,0,0,1-22.48-6.19c-3.64-1.15-7.16-2.61-10.73-4s-7-3.09-10.45-4.63a207,207,0,0,1-39.06-23.75,165.07,165.07,0,0,1-32.19-32.53c-2.22-3.12-4.41-6.24-6.48-9.43-1.84-3.37-3.56-6.78-5.23-10.2-.85-1.69-1.7-3.38-2.42-5.13s-1.27-3.6-1.82-5.43c-1.15-3.62-2.24-7.23-3.12-10.87a1.92,1.92,0,0,1,3.36-1.67l.14.17c2.37,2.89,4.54,5.82,6.63,8.74,1.08,1.44,2,2.93,3.07,4.39l3.42,4.12c2.27,2.74,4.48,5.48,6.59,8.27,2.46,2.53,4.82,5.12,7.13,7.73a90.5,90.5,0,0,0,7.34,7.45c2.58,2.34,4.89,4.94,7.66,7.07l8.14,6.55c2.75,2.13,5.69,4,8.51,6.06a231.76,231.76,0,0,0,36.61,20.16c6.45,2.7,13,5.28,19.53,7.59s13.5,4.28,19.63,5.84l.6.15a10,10,0,0,1-4.38,19.49Z" transform="translate(-377.25 -817.5)"/><path class="cls-4" d="M2739.21,2525.1c6.13-1.56,13.15-3.52,19.64-5.84s13.07-4.89,19.52-7.59a231.86,231.86,0,0,0,36.62-20.16c2.82-2,5.76-3.93,8.5-6.06l8.14-6.55c2.78-2.13,5.09-4.73,7.67-7.07a92,92,0,0,0,7.33-7.45c2.32-2.61,4.67-5.2,7.14-7.73,2.1-2.79,4.31-5.53,6.58-8.27l3.43-4.12c1-1.46,2-3,3.06-4.39,2.1-2.92,4.26-5.85,6.64-8.74l.13-.17a1.93,1.93,0,0,1,2.71-.27,1.91,1.91,0,0,1,.65,1.94c-.88,3.64-2,7.25-3.12,10.87-.55,1.83-1.2,3.61-1.81,5.43s-1.58,3.44-2.42,5.13c-1.67,3.42-3.4,6.83-5.23,10.2-2.07,3.19-4.26,6.31-6.49,9.43a164.8,164.8,0,0,1-32.19,32.53,207,207,0,0,1-39.05,23.75c-3.48,1.54-6.92,3.21-10.45,4.63s-7.09,2.8-10.74,4a160.26,160.26,0,0,1-22.48,6.19,10,10,0,0,1-4.4-19.48Z" transform="translate(-377.25 -817.5)"/><path class="cls-4" d="M2591.3,2690.37a47.9,47.9,0,0,1-3.6-13.4,59.35,59.35,0,0,1-.2-13.79,47.68,47.68,0,0,1,3.45-13.87,29.43,29.43,0,0,1,8.87-11.79,3.71,3.71,0,0,1,5.18.75,3.62,3.62,0,0,1,.73,2.27v.5c-.06,4.18.13,7.73.39,11.31s.84,7.14,1.3,10.71l1.71,10.84a103.05,103.05,0,0,1,1.35,10.8l.06,1.14a10.06,10.06,0,0,1-19.24,4.53Z" transform="translate(-377.25 -817.5)"/><path class="cls-4" d="M2643.55,2695.65a47.14,47.14,0,0,1-3.6-13.4,58.78,58.78,0,0,1-.21-13.79,48.1,48.1,0,0,1,3.46-13.87,29.21,29.21,0,0,1,8.87-11.78,3.7,3.7,0,0,1,5.91,3v.49c-.06,4.18.13,7.74.4,11.32s.83,7.14,1.29,10.71l1.72,10.83a108.49,108.49,0,0,1,1.35,10.81l.05,1.14a10.05,10.05,0,0,1-19.23,4.52Z" transform="translate(-377.25 -817.5)"/><path class="cls-4" d="M2900.59,2581.27a53.43,53.43,0,0,1-3.19,9.17,69.44,69.44,0,0,1-4.25,8.11,63.39,63.39,0,0,1-45.07,29.28c-3,.3-6,.76-8.92.87l-8.75-.42a48,48,0,0,1-8.51-1.14c-2.79-.48-5.57-1.08-8.31-1.7-2.66-.86-5.27-1.84-7.85-2.88a65.78,65.78,0,0,1-7.59-3.32,101.65,101.65,0,0,1-13.65-9.3,2.21,2.21,0,0,1-.28-3.1,2.25,2.25,0,0,1,1.72-.79h.21a107.11,107.11,0,0,1,15.73,1.59c5.07.57,10,.91,14.84,1.82,9.64.55,19.22,1.3,27.81-1a49.72,49.72,0,0,0,22.5-11.56,54.49,54.49,0,0,0,8.38-9.67c1.09-1.87,2.35-3.66,3.3-5.61,1-1.8,2-4.11,2.54-5.38l.57-1.36a9.94,9.94,0,0,1,18.77,6.43Z" transform="translate(-377.25 -817.5)"/><path class="cls-4" d="M2871.72,2684.7a108.67,108.67,0,0,1,1.35-10.8l1.72-10.84c.46-3.57,1-7.12,1.29-10.71s.46-7.13.4-11.31v-.5a3.7,3.7,0,0,1,5.91-3,29.24,29.24,0,0,1,8.87,11.79,48,48,0,0,1,3.46,13.87,58.8,58.8,0,0,1-.21,13.79,47.23,47.23,0,0,1-3.6,13.4,10.05,10.05,0,0,1-19.23-4.51Z" transform="translate(-377.25 -817.5)"/><path class="cls-4" d="M2819.48,2690a102.9,102.9,0,0,1,1.35-10.81l1.71-10.83c.46-3.57,1-7.12,1.3-10.71s.45-7.14.39-11.32v-.49a3.7,3.7,0,0,1,3.65-3.75,3.65,3.65,0,0,1,2.27.73,29.39,29.39,0,0,1,8.87,11.78,47.76,47.76,0,0,1,3.45,13.87,59.33,59.33,0,0,1-.2,13.79,47.5,47.5,0,0,1-3.61,13.4,10.05,10.05,0,0,1-19.23-4.5Z" transform="translate(-377.25 -817.5)"/><path class="cls-4" d="M2741.1,2662.22a10,10,0,0,1-10-10v-117.3a10,10,0,0,1,20,0v117.3A10,10,0,0,1,2741.1,2662.22Z" transform="translate(-377.25 -817.5)"/><path class="cls-4" d="M2832.27,2702.81a205.76,205.76,0,0,1-61.4-9,64.63,64.63,0,0,1-29.77-19.33,64.55,64.55,0,0,1-29.76,19.33c-42.17,13.19-83.08,9.52-110,4.12a53.82,53.82,0,0,1-35.08-24.44,51.89,51.89,0,0,1-6-41.31c4.24-15.46,12.8-27.47,19.24-34.82a13.35,13.35,0,0,0,3.17-11.34c-3.93-19.33-11.61-35.09-15.73-43.56a225.05,225.05,0,0,1-12.55-31.46c-32.58-104.33,7.92-168.87,9.66-171.57,3.39-4.83,35.3-44.4,177.06-44.4s173.67,39.57,176.84,44.08c2,3,42.47,67.56,9.88,171.89a222.45,222.45,0,0,1-12.39,31.15h0l-.15.31c-4.13,8.47-11.81,24.23-15.74,43.56a13.36,13.36,0,0,0,3.18,11.34c6.43,7.35,15,19.36,19.23,34.82a51.85,51.85,0,0,1-6,41.31,53.85,53.85,0,0,1-35.08,24.44A248.39,248.39,0,0,1,2832.27,2702.81Zm-91.17-60.59a10,10,0,0,1,10,10,5.91,5.91,0,0,0,.74,2.85c.36.65.74,1.28,1.13,1.89a43.43,43.43,0,0,0,23.88,17.74c38.11,11.92,75.45,8.53,100.06,3.59a33.8,33.8,0,0,0,22-15.33,32.06,32.06,0,0,0,3.75-25.52c-3.23-11.8-9.94-21.16-15-26.94a33.48,33.48,0,0,1-7.73-28.5c4.44-21.81,12.84-39.06,17.36-48.33l.15-.31a202.2,202.2,0,0,0,11.28-28.36c28.43-91-4.15-149.32-7.17-154.42-2.51-2.84-34.27-35.58-160.46-35.58s-158,32.77-160.46,35.59c-2.92,4.92-35.64,63.25-7.17,154.41a204.67,204.67,0,0,0,11.28,28.36c4.67,9.58,13.07,26.83,17.51,48.64a33.48,33.48,0,0,1-7.72,28.5c-5.06,5.78-11.76,15.14-15,26.94a32.06,32.06,0,0,0,3.76,25.52,33.77,33.77,0,0,0,22,15.33c24.6,4.94,61.94,8.33,100.06-3.6a43.41,43.41,0,0,0,23.87-17.72c.4-.62.77-1.25,1.13-1.9a5.8,5.8,0,0,0,.74-2.85A10,10,0,0,1,2741.1,2642.22Z" transform="translate(-377.25 -817.5)"/><path class="cls-10" d="M2704.42,1908.94c-177,44.87-224.12,215.21-224.12,215.21-18-52.92-23.63-105-23.21-150.92a544.47,544.47,0,0,1,12-107.76,58,58,0,0,1,68.55-44.64c59.11,12.52,101.09,34.92,128.15,54C2692.23,1893.47,2704.42,1908.94,2704.42,1908.94Z" transform="translate(-377.25 -817.5)"/><g class="cls-3"><path class="cls-4" d="M2704.42,1908.94c-177,44.87-224.12,215.21-224.12,215.21-18-52.92-23.63-105-23.21-150.92l.43.9a34.43,34.43,0,0,0,56.77,7.79c50.24-56.93,113.05-90.41,151.51-107.06C2692.23,1893.47,2704.42,1908.94,2704.42,1908.94Z" transform="translate(-377.25 -817.5)"/></g><g class="cls-5"><path class="cls-6" d="M2534.37,1833.92c59.12,12.51,101.1,34.92,128.16,54a237.35,237.35,0,0,1,29.6,24.41c4-1.2,8.11-2.35,12.29-3.41,0,0-12.19-15.47-38.62-34.08-27.06-19.11-69-41.51-128.15-54a58,58,0,0,0-68.55,44.64c-.41,1.91-.82,3.88-1.22,5.88A58,58,0,0,1,2534.37,1833.92Z" transform="translate(-377.25 -817.5)"/></g><path class="cls-4" d="M2480.3,2134.14a10,10,0,0,1-9.47-6.79c-34.48-101.57-25.29-199.61-11.51-264a68,68,0,0,1,80.4-52.33c119,25.19,170.42,89,172.55,91.71a10,10,0,0,1-5.39,15.88c-169.05,42.85-216.49,206.53-217,208.18a10,10,0,0,1-9.35,7.31Zm45.42-304.56a48.07,48.07,0,0,0-46.84,38c-12,55.94-20.38,138.29,2.5,225.43,21.68-49.7,79.67-150.6,204.27-189.16-20-18.75-68.23-55.9-150.07-73.23A47.6,47.6,0,0,0,2525.72,1829.58Z" transform="translate(-377.25 -817.5)"/><path class="cls-11" d="M2670.34,1926.28s-36.19-45.91-120.81-63.83a42,42,0,0,0-49.66,32.34c-9,42-16.95,113.57,8.11,187.39C2508,2082.18,2542.11,1958.79,2670.34,1926.28Z" transform="translate(-377.25 -817.5)"/><g class="cls-3"><path class="cls-4" d="M2514.25,1913.79a38.78,38.78,0,0,1,45.85-29.87c50.18,10.63,81.88,31.9,98.17,45.77q5.89-1.83,12.07-3.41s-36.19-45.91-120.81-63.83a42,42,0,0,0-49.66,32.34c-9,42-16.95,113.57,8.11,187.39a168.63,168.63,0,0,1,6.94-18.85C2500.33,2003.77,2506.89,1948.12,2514.25,1913.79Z" transform="translate(-377.25 -817.5)"/></g><path class="cls-4" d="M2508,2089.67a7.48,7.48,0,0,1-7.1-5.08c-25-73.65-18.34-144.72-8.35-191.37a49.52,49.52,0,0,1,58.55-38.11c86.29,18.27,123.6,64.57,125.15,66.53a7.5,7.5,0,0,1-4.05,11.91c-122.31,31-156.64,149.44-157,150.63a7.52,7.52,0,0,1-7,5.49Zm32.9-220.63a34.56,34.56,0,0,0-33.68,27.32c-8.64,40.35-14.71,99.66,1.62,162.48,15.93-36.22,57.93-108.49,147.43-136.37-14.68-13.65-49.48-40.23-108.28-52.68A33.71,33.71,0,0,0,2540.88,1869Z" transform="translate(-377.25 -817.5)"/><path class="cls-10" d="M2777.79,1908.94c177,44.87,224.11,215.21,224.11,215.21,18-52.92,23.64-105,23.21-150.92a543.8,543.8,0,0,0-12-107.76,58,58,0,0,0-68.55-44.64c-59.11,12.52-101.1,34.92-128.15,54C2790,1893.47,2777.79,1908.94,2777.79,1908.94Z" transform="translate(-377.25 -817.5)"/><g class="cls-3"><path class="cls-4" d="M2777.79,1908.94c177,44.87,224.11,215.21,224.11,215.21,18-52.92,23.64-105,23.21-150.92l-.42.9a34.44,34.44,0,0,1-56.78,7.79c-50.23-56.93-113-90.41-151.5-107.06C2790,1893.47,2777.79,1908.94,2777.79,1908.94Z" transform="translate(-377.25 -817.5)"/></g><g class="cls-5"><path class="cls-6" d="M2947.83,1833.92c-59.11,12.51-101.1,34.92-128.15,54a238.36,238.36,0,0,0-29.61,24.41c-4-1.2-8.11-2.35-12.28-3.41,0,0,12.19-15.47,38.62-34.08,27.05-19.11,69-41.51,128.15-54a58,58,0,0,1,68.55,44.64c.41,1.91.81,3.88,1.22,5.88A58,58,0,0,0,2947.83,1833.92Z" transform="translate(-377.25 -817.5)"/></g><path class="cls-4" d="M3001.91,2134.14h-.28a10,10,0,0,1-9.36-7.31c-.46-1.65-47.9-165.33-216.94-208.18a10,10,0,0,1-5.4-15.88c2.14-2.71,53.56-66.52,172.55-91.71a68,68,0,0,1,80.4,52.33c13.79,64.36,23,162.4-11.5,264A10,10,0,0,1,3001.91,2134.14ZM2796.5,1903.82c124.62,38.55,182.64,139.48,204.33,189.18,22.87-87.14,14.48-169.49,2.5-225.43a48,48,0,0,0-56.7-37C2864.42,1848,2816.41,1885.1,2796.5,1903.82Z" transform="translate(-377.25 -817.5)"/><path class="cls-11" d="M2811.87,1926.28s36.18-45.91,120.81-63.83a42,42,0,0,1,49.66,32.34c9,42,16.94,113.57-8.11,187.39C2974.23,2082.18,2940.09,1958.79,2811.87,1926.28Z" transform="translate(-377.25 -817.5)"/><g class="cls-3"><path class="cls-4" d="M2968,1913.79a38.79,38.79,0,0,0-45.85-29.87c-50.18,10.63-81.89,31.9-98.17,45.77q-5.89-1.83-12.07-3.41s36.18-45.91,120.81-63.83a42,42,0,0,1,49.66,32.34c9,42,16.94,113.57-8.11,187.39a168.63,168.63,0,0,0-6.94-18.85C2981.88,2003.77,2975.31,1948.12,2968,1913.79Z" transform="translate(-377.25 -817.5)"/></g><path class="cls-4" d="M2974.23,2089.67H2974a7.5,7.5,0,0,1-7-5.49c-.33-1.19-34.67-119.62-157-150.63a7.5,7.5,0,0,1-4-11.91c1.54-2,38.85-48.26,125.15-66.53a49.53,49.53,0,0,1,58.54,38.11c10,46.65,16.66,117.72-8.34,191.37A7.5,7.5,0,0,1,2974.23,2089.67ZM2826,1922.47c89.49,27.88,131.49,100.15,147.42,136.37,16.33-62.82,10.27-122.13,1.62-162.48a34.49,34.49,0,0,0-40.77-26.57C2875.43,1882.24,2840.63,1908.82,2826,1922.47Z" transform="translate(-377.25 -817.5)"/><path class="cls-10" d="M3033,2215.63s11.38,11,19.63,17.33c0,0-12.27,32.78-58.18,51,0,0-23.31,27.48-70.3,53.41-42,23.16-102.88,45.09-183,45.09s-141-21.93-183-45.09c-47-25.93-70.3-53.41-70.3-53.41-45.91-18.22-58.18-51-58.18-51,8.24-6.29,19.63-17.33,19.63-17.33-13.5-14.9-19.63-38.21-19.63-38.21,24.42-8.41,33.3-22.08,33.3-22.08,5.45-42.74,16.6-78.66,31.45-108.81a268.28,268.28,0,0,1,87.28-102.17c95.39-67.06,223.49-67.06,318.88,0,54.34,38.19,104.93,102.55,118.73,211,0,0,8.89,13.67,33.31,22.08C3052.58,2177.42,3046.44,2200.73,3033,2215.63Z" transform="translate(-377.25 -817.5)"/><path class="cls-6" d="M2924.1,2337.37c-42,23.16-102.88,45.09-183,45.09s-141-21.93-183-45.09a188.47,188.47,0,0,1,366,0Z" transform="translate(-377.25 -817.5)"/><ellipse class="cls-6" cx="2666.59" cy="2086.65" rx="15.69" ry="21.06" transform="translate(-1096.63 1269.83) rotate(-38.06)"/><ellipse class="cls-6" cx="2815.61" cy="2086.65" rx="21.06" ry="15.69" transform="translate(-940.3 2199.96) rotate(-51.94)"/><path class="cls-10" d="M2656.59,1909s-3.61,45.53,13.63,97.41a2.1,2.1,0,0,1-3.21,2.39c-11.52-8.16-38.52-32.69-41.28-84.84C2625.73,1923.91,2647.84,1912.25,2656.59,1909Z" transform="translate(-377.25 -817.5)"/><path class="cls-10" d="M2741.1,1892.46a94.5,94.5,0,0,0-28.91,3s3.29,112.15,27.27,141.79a2.11,2.11,0,0,0,3.28,0c24-29.64,27.28-141.79,27.28-141.79A94.55,94.55,0,0,0,2741.1,1892.46Z" transform="translate(-377.25 -817.5)"/><path class="cls-10" d="M2825.61,1909s3.61,45.53-13.63,97.41a2.11,2.11,0,0,0,3.22,2.39c11.52-8.16,38.52-32.69,41.27-84.84C2856.47,1923.91,2834.36,1912.25,2825.61,1909Z" transform="translate(-377.25 -817.5)"/><g class="cls-3"><path class="cls-4" d="M3052.58,2177.42c-24.42-8.41-33.31-22.08-33.31-22.08-5.44-42.74-16.6-78.66-31.45-108.81,11.29,47.68,50.8,290.59-246.72,290.59s-258-242.91-246.72-290.59c-14.85,30.15-26,66.07-31.45,108.81,0,0-8.88,13.67-33.3,22.08,0,0,6.13,23.31,19.63,38.21,0,0-11.39,11-19.63,17.33,0,0,12.27,32.78,58.18,51,0,0,23.31,27.48,70.3,53.41,42,23.16,102.88,45.09,183,45.09s141-21.93,183-45.09c47-25.93,70.3-53.41,70.3-53.41,45.91-18.22,58.18-51,58.18-51-8.25-6.29-19.63-17.33-19.63-17.33C3046.44,2200.73,3052.58,2177.42,3052.58,2177.42Z" transform="translate(-377.25 -817.5)"/></g><g class="cls-3"><path class="cls-4" d="M2821.25,2229.29s-7.19,20.86-36.1,19.45-26.29-30.31-26.29-30.31l-17.76-2.11-17.76,2.11s2.63,28.91-26.28,30.31-36.1-19.45-36.1-19.45-13.75,41.6,22.78,54.06c33.12,11.31,57.36-11,57.36-11s24.24,22.35,57.37,11C2835,2270.89,2821.25,2229.29,2821.25,2229.29Z" transform="translate(-377.25 -817.5)"/></g><g class="cls-5"><path class="cls-6" d="M2900.54,1944.36c-95.39-67.06-223.49-67.06-318.88,0a268.28,268.28,0,0,0-87.28,102.17c-14.85,30.15-26,66.07-31.45,108.81l.83.14a343.76,343.76,0,0,1,30.62-92.59,268.39,268.39,0,0,1,87.28-102.18,275.32,275.32,0,0,1,47.8-26.93,7.8,7.8,0,0,1,7.08.45c8,4.67,26.67,5.21,47.46.71,21.42-4.63,38.55-13.19,43.38-20.94a7.58,7.58,0,0,1,6.24-3.47,277.08,277.08,0,0,1,166.92,50.18c51.58,36.25,101.23,96.06,118,194.76l.76-.13C3005.47,2046.91,2954.88,1982.55,2900.54,1944.36Z" transform="translate(-377.25 -817.5)"/></g><path class="cls-4" d="M2582.22,2163.6a75.21,75.21,0,0,1,20.48-18.55,67,67,0,0,1,27.38-9.8,65.41,65.41,0,0,1,7.68-.42c2.58.14,5.19.35,7.78.65,5.05,1.17,10.29,2.32,14.78,4.9,4.83,2.08,8.76,5.28,12.64,8.47s6.68,7.2,9.62,11a8.89,8.89,0,0,1-11.62,13l-1.83-1.1c-3.37-2-6.12-4.68-9.18-6.64-1.55-.92-3.07-1.86-4.52-2.88-1.41-1.18-3.14-1.48-4.61-2.39a20.58,20.58,0,0,0-4.68-2c-1.6-.52-3.17-1.19-4.79-1.68-1.68-.24-3.34-.59-5-1a44.62,44.62,0,0,0-5.22-.44,66,66,0,0,0-22.16,3.44,122.72,122.72,0,0,0-22.41,9.89l-.24.13a3.15,3.15,0,0,1-4.07-4.63Z" transform="translate(-377.25 -817.5)"/><path class="cls-4" d="M2895.68,2168.1a123.11,123.11,0,0,0-22.42-9.89,66,66,0,0,0-22.16-3.44,44.8,44.8,0,0,0-5.22.44c-1.68.4-3.35.75-5,1-1.63.49-3.2,1.16-4.8,1.68a20.7,20.7,0,0,0-4.67,2c-1.48.91-3.21,1.21-4.61,2.39-1.45,1-3,2-4.53,2.88-3.05,2-5.8,4.62-9.17,6.64l-1.82,1.09a8.89,8.89,0,0,1-11.63-13c2.93-3.83,5.83-7.79,9.62-11s7.81-6.39,12.63-8.47c4.49-2.58,9.74-3.73,14.78-4.9,2.6-.3,5.2-.51,7.79-.65a65.24,65.24,0,0,1,7.67.42,67,67,0,0,1,27.39,9.8A75.36,75.36,0,0,1,2900,2163.6a3.16,3.16,0,0,1-4.07,4.64Z" transform="translate(-377.25 -817.5)"/><path class="cls-4" d="M2779,2206.33c-1.7-5.73-10-9.22-18.4-11.3a81,81,0,0,0-39,0c-8.4,2.08-16.69,5.57-18.4,11.3-3.68,12.36,12.74,28.13,37.91,28.13S2782.69,2218.69,2779,2206.33Z" transform="translate(-377.25 -817.5)"/><path class="cls-4" d="M2748.6,2229.29a43.21,43.21,0,0,1-.82,9.61,48,48,0,0,1-2.62,9,43.68,43.68,0,0,1-10.83,15.79,44.19,44.19,0,0,1-7.78,5.84c-2.86,1.34-5.69,3.07-8.69,3.84l-4.47,1.37c-1.5.36-3,.52-4.49.78s-3,.52-4.48.64l-4.41.17c-1.48,0-2.92.14-4.43.09l-4.6-.44c-3-.13-6.17-1.21-9.21-1.93a36.08,36.08,0,0,1-16.15-10.8,34.22,34.22,0,0,1-7.38-16.9,37.46,37.46,0,0,1,1.39-17.1,1.37,1.37,0,0,1,1.74-.86,1.36,1.36,0,0,1,.87.89l0,.14c3.08,10,7.22,19.21,13.43,24.37a27,27,0,0,0,10.45,5.39,44.05,44.05,0,0,0,13,.57c9.19-.78,17.77-3.25,23.54-8.74a31.09,31.09,0,0,0,7.25-9.72,44.28,44.28,0,0,0,2.3-6,43.39,43.39,0,0,0,1.36-6l.15-1a7.47,7.47,0,0,1,14.85,1Z" transform="translate(-377.25 -817.5)"/><path class="cls-4" d="M2748.6,2229.29a45.08,45.08,0,0,0,1.37,6,44.24,44.24,0,0,0,2.29,6,31.12,31.12,0,0,0,7.26,9.72c5.77,5.49,14.35,8,23.53,8.74a44.14,44.14,0,0,0,13-.57,27.08,27.08,0,0,0,10.45-5.39c6.2-5.16,10.34-14.34,13.42-24.37l0-.13a1.37,1.37,0,0,1,2.61,0,37.59,37.59,0,0,1,1.4,17.1,34.4,34.4,0,0,1-7.38,16.9,36.13,36.13,0,0,1-16.15,10.8c-3,.72-6.19,1.8-9.22,1.93l-4.6.44c-1.5,0-2.94-.06-4.42-.09l-4.42-.17c-1.48-.12-3-.42-4.47-.64s-3-.42-4.49-.78l-4.47-1.37c-3-.77-5.83-2.5-8.7-3.84a44.19,44.19,0,0,1-7.78-5.84,43.53,43.53,0,0,1-10.82-15.79,47.24,47.24,0,0,1-2.62-9,43.19,43.19,0,0,1-.83-9.61,7.47,7.47,0,0,1,14.85-1Z" transform="translate(-377.25 -817.5)"/><path class="cls-4" d="M2479.92,2290.11a79.84,79.84,0,0,1-6.05-12.94c-1.59-4.55-3.17-9.19-3.54-14.46a2.91,2.91,0,0,1,2.7-3.12,3,3,0,0,1,2,.6l.22.18c3.63,2.81,7.07,5.69,10.56,8.57s6.92,5.85,9.9,8.89a10.07,10.07,0,1,1-14.34,14.13,10.24,10.24,0,0,1-1.4-1.78Z" transform="translate(-377.25 -817.5)"/><path class="cls-4" d="M2986.5,2277.83c3-3,6.53-6,9.9-8.89s6.94-5.76,10.56-8.57l.22-.17a2.91,2.91,0,0,1,4.09.51,3,3,0,0,1,.61,2c-.38,5.27-2,9.91-3.55,14.46a79,79,0,0,1-6,12.94v0a10.07,10.07,0,0,1-17.2-10.48A10.74,10.74,0,0,1,2986.5,2277.83Z" transform="translate(-377.25 -817.5)"/><path class="cls-4" d="M2741.1,2392.46c-161.32,0-246.1-85.68-259.22-100.11-47.65-19.81-61.06-54.39-61.61-55.88a10,10,0,0,1,3.28-11.44c3.84-2.94,8.49-7.06,12.2-10.45-10.69-15.57-15.55-33.73-15.79-34.62a10,10,0,0,1,6.41-12c16-5.52,24.12-13.31,27-16.61,12.64-94.51,53.85-166.9,122.54-215.18,98.81-69.45,231.59-69.45,330.4,0,68.7,48.29,109.91,120.68,122.54,215.19,2.82,3.23,10.91,11.06,27,16.6a10,10,0,0,1,6.41,12c-.23.89-5.1,19.05-15.79,34.62,3.71,3.39,8.37,7.51,12.2,10.45a10,10,0,0,1,3.29,11.44c-.56,1.49-14,36.07-61.62,55.88C2987.2,2306.78,2902.42,2392.46,2741.1,2392.46Zm-298.92-156.84c5.65,9.37,19.7,27.3,49.32,39.06a9.91,9.91,0,0,1,3.94,2.82c.8.94,83,95,245.66,95,163.24,0,244.86-94,245.67-95a9.94,9.94,0,0,1,3.93-2.82c29.6-11.76,43.66-29.67,49.32-39.06-7-6-13.67-12.47-14-12.82a10,10,0,0,1-.45-13.89c7-7.71,11.82-18.36,14.58-25.69-20.13-9.13-28.26-20.95-29.23-22.43a10.07,10.07,0,0,1-1.53-4.19c-11.46-90-50-158.69-114.56-204.06-91.93-64.62-215.46-64.61-307.4,0-64.55,45.37-103.09,114-114.55,204.06a10.08,10.08,0,0,1-1.54,4.19c-1,1.48-9.1,13.3-29.23,22.43,2.76,7.32,7.6,18,14.59,25.69a10,10,0,0,1-.45,13.89C2455.85,2223.15,2449.15,2229.64,2442.18,2235.62Z" transform="translate(-377.25 -817.5)"/><path class="cls-10" d="M1572.35,2399.91c-17.79,30.84-47.58,58.61-96.59,74.1l-21.42-66.5s34.83-10.4,56.63-49.4c9.85-17.65,17-41.18,17.14-72.23a34.32,34.32,0,0,1,32-34c.81-.06,1.62-.08,2.42-.08a34.44,34.44,0,0,1,34.36,32.82C1598.37,2314.91,1595.42,2360,1572.35,2399.91Z" transform="translate(-377.25 -817.5)"/><path class="cls-6" d="M1572.35,2399.91c-31.62-6.43-50.36-23-61.38-41.8,9.85-17.65,17-41.18,17.14-72.23a34.32,34.32,0,0,1,32-34c.81-.06,1.62-.08,2.42-.08a34.44,34.44,0,0,1,34.36,32.82C1598.37,2314.91,1595.42,2360,1572.35,2399.91Z" transform="translate(-377.25 -817.5)"/><g class="cls-3"><path class="cls-4" d="M1596.92,2284.62a34.39,34.39,0,0,0-32.2-32.71,34.34,34.34,0,0,1,5.92,17.69c1.44,30.29-1.51,75.37-24.58,115.29-15.33,26.59-39.61,50.9-77.42,67l7.12,22.1c49-15.49,78.8-43.26,96.59-74.1C1595.42,2360,1598.37,2314.91,1596.92,2284.62Z" transform="translate(-377.25 -817.5)"/></g><path class="cls-4" d="M1469.29,2486.54l-27.59-85.69,9.76-2.92c2.91-.89,66.39-21.65,66.66-112.09a44.45,44.45,0,0,1,41.33-43.94,44.44,44.44,0,0,1,47.46,42.25c2.8,58.46-10.11,162.1-128.14,199.39Zm-2.62-73.39,15.49,48.1c96.52-35.71,107.22-125,104.77-176.14a24.42,24.42,0,0,0-48.81.79C1537.87,2369.6,1488,2402.8,1466.67,2413.15Z" transform="translate(-377.25 -817.5)"/><path class="cls-10" d="M1362.45,2568.27a276.3,276.3,0,0,0,5.46,54.47,75.59,75.59,0,0,0,53.57,58,205.71,205.71,0,0,0,100.43,2.79,46.75,46.75,0,0,0,36.26-39.54,74.87,74.87,0,0,0,.19-17.84c-5.18-45.19-53.66-59.38-53.66-59.38,1.89-3.95,3.62-7.8,5.18-11.59a175.68,175.68,0,0,0,7.72-23.09,127.38,127.38,0,0,0,4-41.42,106.67,106.67,0,0,0-5.16-25.91c-9.35-28.07-29-47.9-46.15-60.63a38.62,38.62,0,0,0-53.38,7.3C1374.2,2465.81,1362.43,2522.42,1362.45,2568.27Z" transform="translate(-377.25 -817.5)"/><path class="cls-6" d="M1362.45,2568.27a276.3,276.3,0,0,0,5.46,54.47,75.59,75.59,0,0,0,53.57,58,205.71,205.71,0,0,0,100.43,2.79,46.75,46.75,0,0,0,36.26-39.54c7.47-59.37-53.47-77.22-53.47-77.22S1443.54,2610.68,1362.45,2568.27Z" transform="translate(-377.25 -817.5)"/><g class="cls-3"><path class="cls-4" d="M1362.45,2568.27a276.3,276.3,0,0,0,5.46,54.47,75.59,75.59,0,0,0,53.57,58,205.71,205.71,0,0,0,100.43,2.79,46.75,46.75,0,0,0,36.26-39.54,74.87,74.87,0,0,0,.19-17.84c-11.23,11-28.2,20.75-53.66,26.61-91.12,20.92-70.83-66-70.83-66,51.3,1.55,70.83-20,70.83-20-108.42,7.54-34.38-162.64-34.38-162.64a38.62,38.62,0,0,0-53.38,7.3C1374.2,2465.81,1362.43,2522.42,1362.45,2568.27Z" transform="translate(-377.25 -817.5)"/></g><g class="cls-5"><path class="cls-6" d="M1548.78,2657.15a74.79,74.79,0,0,0,.19-17.83c-5.18-45.2-53.66-59.39-53.66-59.39,1.89-3.94,3.62-7.79,5.18-11.59a173.74,173.74,0,0,0,7.72-23.09,127.38,127.38,0,0,0,4-41.42,106.77,106.77,0,0,0-5.16-25.91c-9.35-28.07-29-47.9-46.15-60.63a38.63,38.63,0,0,0-53.38,7.31c-.94,1.19-1.84,2.38-2.75,3.58,3.74-5.59,7.77-11.17,12.14-16.73a38.62,38.62,0,0,1,53.38-7.3c17.12,12.73,36.8,32.56,46.15,60.63a106.67,106.67,0,0,1,5.16,25.91,127.38,127.38,0,0,1-4,41.42,175.68,175.68,0,0,1-7.72,23.09c-1.56,3.79-3.29,7.64-5.18,11.59,0,0,48.48,14.19,53.66,59.38a74.87,74.87,0,0,1-.19,17.84,46.09,46.09,0,0,1-13.46,27.07A45.76,45.76,0,0,0,1548.78,2657.15Z" transform="translate(-377.25 -817.5)"/></g><path class="cls-4" d="M1516.83,2680c.94-2.83,2.06-6.71,3-10.22s1.68-7.29,2.31-11c1.3-7.51,1.9-15.14,2.75-23.4v0a1.89,1.89,0,0,1,2.08-1.69,1.92,1.92,0,0,1,1.46.95,59,59,0,0,1,7,24.7,72.72,72.72,0,0,1-.06,13,57.93,57.93,0,0,1-2.53,13.34,8.45,8.45,0,1,1-16.09-5.14.25.25,0,0,1,0-.07Z" transform="translate(-377.25 -817.5)"/><path class="cls-4" d="M1471.71,2682.69c.9-2.64,2-6.51,3-9.93s1.83-7.17,2.55-10.86c1.48-7.41,2.33-14.94,3.65-23.28v-.07a2.29,2.29,0,0,1,4.19-.86c4.71,7.44,7,16.1,7.85,24.81a74.8,74.8,0,0,1,.19,13.22,58.36,58.36,0,0,1-2.53,13.62,10,10,0,1,1-19.07-6l.06-.18Z" transform="translate(-377.25 -817.5)"/><path class="cls-4" d="M1510.51,2574.92a110.56,110.56,0,0,1-15.44,6.29,129.59,129.59,0,0,1-15.37,4.09,153.26,153.26,0,0,1-15.49,2.33c-5.16.54-10.35.56-15.45.6a2.28,2.28,0,0,1-.43-4.52h.08a101.79,101.79,0,0,0,27.53-9.38,116.24,116.24,0,0,0,12.34-7.24,71.53,71.53,0,0,0,10.6-8.43,10.15,10.15,0,0,1,14.43,14.27,10.25,10.25,0,0,1-2.53,1.86Z" transform="translate(-377.25 -817.5)"/><path class="cls-4" d="M1477.41,2698.46a217.13,217.13,0,0,1-58.63-8.08,85.15,85.15,0,0,1-60.68-65.67c-9.24-46-14.91-135.65,51-219.43a48.36,48.36,0,0,1,67.22-9.16h0c32.3,24,79.39,76.86,41.92,165.09,24.12,10.95,55.71,37.72,49.88,84.05a56.88,56.88,0,0,1-44,48A213.14,213.14,0,0,1,1477.41,2698.46Zm-30-291.93a28.74,28.74,0,0,0-22.63,11.11c-57.86,73.59-57.54,151.09-47.08,203.14a65.26,65.26,0,0,0,46.45,50.34,195.4,195.4,0,0,0,95.55,2.67,36.79,36.79,0,0,0,28.53-31c6.3-50-44.23-65.74-46.38-66.39l-11.24-3.36,5.07-10.57c37.27-77.21,3.53-124.33-31.33-150.27h0A28.3,28.3,0,0,0,1447.42,2406.53Z" transform="translate(-377.25 -817.5)"/><path class="cls-10" d="M1138.23,2568.27a276.24,276.24,0,0,1-5.47,54.47,75.58,75.58,0,0,1-53.56,58,205.75,205.75,0,0,1-100.44,2.79A46.74,46.74,0,0,1,942.51,2644a74.87,74.87,0,0,1-.19-17.84C947.5,2581,996,2566.79,996,2566.79c-1.9-3.95-3.62-7.8-5.18-11.59a174.22,174.22,0,0,1-7.72-23.09,127.38,127.38,0,0,1-4-41.42,106.67,106.67,0,0,1,5.16-25.91c9.35-28.07,29-47.9,46.15-60.63a38.63,38.63,0,0,1,53.38,7.3C1126.47,2465.81,1138.25,2522.42,1138.23,2568.27Z" transform="translate(-377.25 -817.5)"/><path class="cls-6" d="M1138.23,2568.27a276.24,276.24,0,0,1-5.47,54.47,75.58,75.58,0,0,1-53.56,58,205.75,205.75,0,0,1-100.44,2.79A46.74,46.74,0,0,1,942.51,2644C935,2584.64,996,2566.79,996,2566.79S1057.13,2610.68,1138.23,2568.27Z" transform="translate(-377.25 -817.5)"/><g class="cls-3"><path class="cls-4" d="M1138.23,2568.27a276.24,276.24,0,0,1-5.47,54.47,75.58,75.58,0,0,1-53.56,58,205.75,205.75,0,0,1-100.44,2.79A46.74,46.74,0,0,1,942.51,2644a74.87,74.87,0,0,1-.19-17.84c11.23,11,28.2,20.75,53.66,26.61,91.12,20.92,70.82-66,70.82-66-51.29,1.55-70.82-20-70.82-20,108.41,7.54,34.38-162.64,34.38-162.64a38.63,38.63,0,0,1,53.38,7.3C1126.47,2465.81,1138.25,2522.42,1138.23,2568.27Z" transform="translate(-377.25 -817.5)"/></g><g class="cls-5"><path class="cls-6" d="M951.9,2657.15a74.79,74.79,0,0,1-.19-17.83c5.18-45.2,53.66-59.39,53.66-59.39-1.9-3.94-3.62-7.79-5.18-11.59a173.74,173.74,0,0,1-7.72-23.09,127.13,127.13,0,0,1-4-41.42,107.24,107.24,0,0,1,5.17-25.91c9.35-28.07,29-47.9,46.15-60.63a38.63,38.63,0,0,1,53.38,7.31c.94,1.19,1.84,2.38,2.75,3.58-3.74-5.59-7.77-11.17-12.14-16.73a38.63,38.63,0,0,0-53.38-7.3c-17.12,12.73-36.8,32.56-46.15,60.63a106.67,106.67,0,0,0-5.16,25.91,127.38,127.38,0,0,0,4,41.42,174.22,174.22,0,0,0,7.72,23.09c1.56,3.79,3.28,7.64,5.18,11.59,0,0-48.48,14.19-53.66,59.38a74.87,74.87,0,0,0,.19,17.84A46.09,46.09,0,0,0,956,2671.08,45.76,45.76,0,0,1,951.9,2657.15Z" transform="translate(-377.25 -817.5)"/></g><path class="cls-4" d="M966.45,2686.12a58.36,58.36,0,0,1-2.53-13.62,76.76,76.76,0,0,1,.19-13.22c.82-8.71,3.14-17.37,7.86-24.81a2.28,2.28,0,0,1,4.18.85v.09c1.33,8.33,2.17,15.87,3.65,23.28.72,3.69,1.58,7.31,2.55,10.85s2,7.29,2.95,9.93l.14.41a10,10,0,1,1-18.93,6.46Z" transform="translate(-377.25 -817.5)"/><path class="cls-4" d="M1010.1,2689.34a58.32,58.32,0,0,1-2.52-13.62,74.8,74.8,0,0,1,.19-13.22c.81-8.71,3.13-17.37,7.85-24.81a2.28,2.28,0,0,1,4.18.85l0,.08c1.32,8.34,2.16,15.87,3.64,23.28.73,3.69,1.59,7.32,2.55,10.86s2.06,7.29,3,9.93l.14.41a10,10,0,0,1-18.93,6.46Z" transform="translate(-377.25 -817.5)"/><path class="cls-4" d="M1001.79,2558.65a72.17,72.17,0,0,0,10.61,8.43,115.24,115.24,0,0,0,12.34,7.24,101.67,101.67,0,0,0,27.53,9.38h.08a2.28,2.28,0,0,1-.44,4.52c-5.1,0-10.28-.06-15.44-.6a153.26,153.26,0,0,1-15.49-2.33,129.59,129.59,0,0,1-15.37-4.09,110.06,110.06,0,0,1-15.44-6.29l-.23-.12a10.15,10.15,0,1,1,9.29-18A10.36,10.36,0,0,1,1001.79,2558.65Z" transform="translate(-377.25 -817.5)"/><path class="cls-4" d="M1023.27,2698.46a213.14,213.14,0,0,1-46.71-5.15,56.88,56.88,0,0,1-44-48c-5.83-46.33,25.76-73.1,49.88-84.05-37.47-88.23,9.62-141.05,41.91-165.09h0a48.35,48.35,0,0,1,67.21,9.16c65.88,83.78,60.21,173.45,51,219.43a85.12,85.12,0,0,1-60.67,65.67A217.53,217.53,0,0,1,1023.27,2698.46Zm13-286.29c-34.86,25.94-68.6,73.06-31.33,150.27l5.12,10.62-11.32,3.32c-2.13.64-52.65,16.36-46.36,66.38a36.8,36.8,0,0,0,28.54,31,195.48,195.48,0,0,0,95.54-2.67,65.23,65.23,0,0,0,46.45-50.34c10.47-52.06,10.79-129.55-47.08-203.14a28.47,28.47,0,0,0-39.56-5.47Z" transform="translate(-377.25 -817.5)"/><path class="cls-10" d="M1421,2571.5a26.69,26.69,0,0,0,6.26,22.87c6.61,7.56,15.36,19.83,19.64,35.45,7.53,27.48-10.44,55.57-38.38,61.19-29.72,6-74.54,9.95-120.54-4.43-13.78-4.3-25.93-13-33.67-25.14-.58-.89-1.13-1.81-1.65-2.75a18.35,18.35,0,0,1-2.29-8.88,18.35,18.35,0,0,1-2.29,8.88c-.53.94-1.07,1.86-1.65,2.75-7.74,12.18-19.89,20.84-33.67,25.14-46,14.38-90.82,10.4-120.54,4.43-27.94-5.62-45.91-33.71-38.38-61.19.45-1.66,1-3.27,1.52-4.85a93.89,93.89,0,0,1,18.12-30.6,26.71,26.71,0,0,0,6.25-22.87q-.78-3.91-1.74-7.62c0-.08-.06-.15-.08-.25-.24-1.05-.52-2.1-.81-3.12a.53.53,0,0,1,0-.15c-1.49-5.42-3.14-10.51-4.87-15.22a263.43,263.43,0,0,0-11.64-26.74s0-.06,0-.07a245.17,245.17,0,0,1-13.54-34.08c-.28-.94-.58-1.86-.85-2.78a315.71,315.71,0,0,1-7.92-31.88c-13.18-68.27,2-117,11.68-139.19a105.2,105.2,0,0,1,6.85-13.44s9.48-13.48,44-25.8c29-10.38,75.82-19.92,149.59-19.92,161.47,0,193.62,45.72,193.62,45.72a105.2,105.2,0,0,1,6.85,13.44c11.25,25.78,29.91,87.4,2.91,173.85a244.5,244.5,0,0,1-13.58,34.15C1435.15,2528.63,1425.84,2547.62,1421,2571.5Z" transform="translate(-377.25 -817.5)"/><path class="cls-6" d="M1399.93,2271.16c-29-10.38-75.82-19.92-149.59-19.92s-120.54,9.54-149.59,19.92c-29,64.7-4.37,125.72-4.37,125.72,33.4,89.73,154,118.29,154,118.29s120.56-28.56,154-118.29C1404.3,2396.88,1428.88,2335.86,1399.93,2271.16Z" transform="translate(-377.25 -817.5)"/><path class="cls-6" d="M1250.34,2649.81a18.35,18.35,0,0,1-2.29,8.88c-.53.94-1.07,1.86-1.65,2.75-7.74,12.18-19.89,20.84-33.67,25.14-46,14.38-90.82,10.4-120.54,4.43-27.94-5.62-45.91-33.71-38.38-61.19,4.28-15.62,13-27.89,19.64-35.45a26.71,26.71,0,0,0,6.25-22.87s32.37,68,119.87,27.56C1199.57,2599.06,1250.34,2582.3,1250.34,2649.81Z" transform="translate(-377.25 -817.5)"/><path class="cls-6" d="M1250.34,2649.81a18.35,18.35,0,0,0,2.29,8.88c.52.94,1.07,1.86,1.65,2.75,7.74,12.18,19.89,20.84,33.67,25.14,46,14.38,90.82,10.4,120.54,4.43,27.94-5.62,45.91-33.71,38.38-61.19-4.28-15.62-13-27.89-19.64-35.45a26.69,26.69,0,0,1-6.26-22.87s-32.37,68-119.86,27.56C1301.11,2599.06,1250.34,2582.3,1250.34,2649.81Z" transform="translate(-377.25 -817.5)"/><g class="cls-3"><path class="cls-4" d="M1446.87,2629.82c-.45-1.66-1-3.27-1.52-4.85-42.21,70.83-139.32,39.64-152.09,24.84-13.69-15.82,7.85-50.75,7.85-50.75,93.71,34.51,117.12-20.39,121.61-35.18,0-.08.06-.15.08-.25.48-1.63.73-2.74.8-3.12a.41.41,0,0,0,0-.15c-38.41,25.21-63.4,25-79.58,15.47-25.44-15-25.62-51.62-1.43-68.59,64.85-45.5,61.67-110.36,61.67-110.36-34.14,36.77-76.7,57.46-108.41,68.69a136.65,136.65,0,0,1-91.1,0c-31.72-11.23-74.27-31.92-108.41-68.69,0,0-3.18,64.86,61.67,110.36,24.18,17,24,53.56-1.43,68.59-16.19,9.56-41.17,9.74-79.58-15.47a.53.53,0,0,0,0,.15c.08.38.32,1.49.81,3.12,0,.1.06.17.08.25,4.48,14.79,27.9,69.69,121.61,35.18,0,0,21.53,34.93,7.85,50.75-12.77,14.8-109.88,46-152.09-24.84-.56,1.58-1.07,3.19-1.52,4.85-7.53,27.48,10.44,55.57,38.38,61.19,29.72,6,74.54,9.95,120.54-4.43,13.78-4.3,25.93-13,33.67-25.14.55-.85,1.07-1.72,1.58-2.62a18.44,18.44,0,0,0,2.36-9,18.34,18.34,0,0,0,2.36,9c.51.9,1,1.77,1.58,2.62,7.74,12.18,19.89,20.84,33.67,25.14,46,14.38,90.82,10.4,120.54,4.43C1436.43,2685.39,1454.4,2657.3,1446.87,2629.82Z" transform="translate(-377.25 -817.5)"/></g><g class="cls-3"><path class="cls-4" d="M1450.81,2325.42c-47.71,24.62-114.44,46.66-200.47,46.66s-152.76-22-200.47-46.66a105.2,105.2,0,0,1,6.85-13.44s9.48-13.48,44-25.8c29-10.38,75.82-19.92,149.59-19.92,161.47,0,193.62,45.72,193.62,45.72A105.2,105.2,0,0,1,1450.81,2325.42Z" transform="translate(-377.25 -817.5)"/></g><path class="cls-4" d="M1088,2562.93a67,67,0,0,0,3,6.46c1.1,2.31,2.57,4.42,3.85,6.63,3,4.1,6.06,8.19,9.88,11.42a58.1,58.1,0,0,0,26.62,13.54c10.11,2.68,21.26,1.72,32.41.95,5.56-1.1,11.28-1.62,17.09-2.41a137,137,0,0,1,17.9-2.4h.2a2.17,2.17,0,0,1,1.45,3.89,129.48,129.48,0,0,1-15.83,10.1,78.24,78.24,0,0,1-8.7,3.64c-2.95,1.13-5.94,2.21-9,3.16-3.13.67-6.29,1.32-9.47,1.86a54.09,54.09,0,0,1-9.66,1.24l-9.91.42c-3.33-.15-6.7-.68-10.06-1a71.69,71.69,0,0,1-37.27-17.19,72.59,72.59,0,0,1-13.42-15.82,81.86,81.86,0,0,1-4.81-9.13,60.22,60.22,0,0,1-3.61-10.25,10,10,0,0,1,18.85-6.32Z" transform="translate(-377.25 -817.5)"/><path class="cls-4" d="M1248.45,2525a186.35,186.35,0,0,1-25.6-7.07c-4.16-1.32-8.17-3-12.25-4.51s-8-3.52-11.94-5.27a239.2,239.2,0,0,1-44.65-27,190,190,0,0,1-36.92-36.94c-2.56-3.54-5.08-7.09-7.49-10.71-2.12-3.82-4.14-7.69-6.1-11.55-1-1.93-2-3.84-2.85-5.83s-1.51-4.08-2.18-6.14c-1.4-4.11-2.72-8.21-3.84-12.33A1.92,1.92,0,0,1,1098,2396l.13.18c2.62,3.38,5,6.79,7.36,10.19,1.2,1.69,2.29,3.42,3.42,5.12l3.86,4.8c2.56,3.2,5.06,6.39,7.46,9.63,2.8,3,5.49,6,8.14,9a101.08,101.08,0,0,0,8.41,8.66c3,2.73,5.62,5.75,8.81,8.23l9.36,7.62c3.16,2.47,6.54,4.68,9.79,7a264.77,264.77,0,0,0,42.21,23.41c7.44,3.13,14.94,6.12,22.54,8.78s15.57,4.94,22.75,6.73l.57.15a10,10,0,0,1-4.35,19.49Z" transform="translate(-377.25 -817.5)"/><path class="cls-4" d="M1248.45,2505.35c7.18-1.79,15.25-4,22.75-6.73s15.1-5.65,22.54-8.78a264.68,264.68,0,0,0,42.2-23.41c3.25-2.36,6.64-4.57,9.8-7l9.36-7.62c3.19-2.48,5.84-5.5,8.81-8.23a101,101,0,0,0,8.4-8.66c2.66-3,5.35-6,8.15-9,2.39-3.24,4.9-6.43,7.46-9.63l3.85-4.8c1.14-1.7,2.23-3.43,3.43-5.12,2.33-3.4,4.74-6.81,7.35-10.19l.14-.18a1.92,1.92,0,0,1,3.36,1.68c-1.12,4.12-2.45,8.22-3.84,12.33-.67,2.06-1.45,4.09-2.18,6.14s-1.86,3.9-2.85,5.83c-2,3.86-4,7.73-6.1,11.55-2.41,3.62-4.94,7.17-7.5,10.71a189.94,189.94,0,0,1-36.91,36.94,239.2,239.2,0,0,1-44.65,27c-4,1.75-7.9,3.64-11.94,5.27s-8.1,3.19-12.26,4.51a185.81,185.81,0,0,1-25.59,7.07,10,10,0,0,1-4.38-19.49Z" transform="translate(-377.25 -817.5)"/><path class="cls-4" d="M1079.8,2693.19a57.19,57.19,0,0,1-4-15.18,70.09,70.09,0,0,1-.35-15.61,56,56,0,0,1,3.62-15.69,34.17,34.17,0,0,1,9.49-13.49,3.64,3.64,0,0,1,5.13.51,3.59,3.59,0,0,1,.81,2.57l0,.43a115.24,115.24,0,0,0-.23,13c.2,4.19.68,8.36,1.14,12.53s1.24,8.41,1.85,12.66,1.41,8.71,1.72,12.59l.08.93a10,10,0,0,1-19.26,4.73Z" transform="translate(-377.25 -817.5)"/><path class="cls-4" d="M1139.77,2699.26a57.14,57.14,0,0,1-4-15.19,70.06,70.06,0,0,1-.35-15.61,56,56,0,0,1,3.62-15.68,34.1,34.1,0,0,1,9.49-13.5,3.65,3.65,0,0,1,5.94,3.09l0,.42a113.25,113.25,0,0,0-.24,13c.21,4.19.68,8.35,1.14,12.53s1.24,8.41,1.85,12.66,1.41,8.71,1.72,12.59l.08.93a10,10,0,0,1-19.26,4.73Z" transform="translate(-377.25 -817.5)"/><path class="cls-4" d="M1432,2568a61.1,61.1,0,0,1-3.61,10.25,83.56,83.56,0,0,1-4.81,9.13,72.59,72.59,0,0,1-13.42,15.82,71.69,71.69,0,0,1-37.28,17.19c-3.36.35-6.72.88-10.06,1l-9.9-.42a54.32,54.32,0,0,1-9.67-1.24c-3.18-.54-6.33-1.19-9.46-1.86-3-1-6-2-9-3.16a78.39,78.39,0,0,1-8.71-3.64,130.13,130.13,0,0,1-15.82-10.1,2.17,2.17,0,0,1,1.43-3.89h.21a137.43,137.43,0,0,1,17.91,2.4c5.81.79,11.53,1.31,17.09,2.41,11.15.77,22.29,1.73,32.41-.95a58.1,58.1,0,0,0,26.62-13.54c3.81-3.23,6.89-7.32,9.88-11.42,1.28-2.21,2.75-4.32,3.85-6.63a64.38,64.38,0,0,0,3-6.46l.48-1.2A10,10,0,0,1,1432,2568Z" transform="translate(-377.25 -817.5)"/><path class="cls-4" d="M1401.7,2687.53c.31-3.88,1.07-8.43,1.72-12.59s1.37-8.47,1.85-12.66.93-8.34,1.14-12.53a115.24,115.24,0,0,0-.23-13l0-.42a3.64,3.64,0,0,1,5.94-3.09,34.09,34.09,0,0,1,9.5,13.49,56.72,56.72,0,0,1,3.62,15.69,71.3,71.3,0,0,1-.35,15.61,57.58,57.58,0,0,1-4,15.18,10,10,0,0,1-19.26-4.71Z" transform="translate(-377.25 -817.5)"/><path class="cls-4" d="M1341.72,2693.6c.32-3.88,1.08-8.43,1.72-12.59s1.37-8.47,1.86-12.66.93-8.34,1.13-12.53a115.46,115.46,0,0,0-.23-13l0-.41a3.64,3.64,0,0,1,3.35-3.91,3.68,3.68,0,0,1,2.59.81,34.1,34.1,0,0,1,9.49,13.5,56,56,0,0,1,3.62,15.68,70.06,70.06,0,0,1-.35,15.61,57.16,57.16,0,0,1-4,15.19,10,10,0,0,1-19.26-4.71Z" transform="translate(-377.25 -817.5)"/><path class="cls-4" d="M1250.34,2659.82a10,10,0,0,1-10-10V2515.18a10,10,0,0,1,20,0v134.64A10,10,0,0,1,1250.34,2659.82Z" transform="translate(-377.25 -817.5)"/><path class="cls-4" d="M1145.69,2706.42a283.52,283.52,0,0,1-55.48-5.61,60.3,60.3,0,0,1-39.3-27.39,58,58,0,0,1-6.75-46.24c4.79-17.45,14.48-31,21.77-39.39a16.81,16.81,0,0,0,4-14.29c-4.56-22.4-13.43-40.6-18.2-50.38a257.74,257.74,0,0,1-14.3-35.88c-37.2-119.11,8.94-192.63,10.92-195.7,3.81-5.44,40-50.3,202-50.3s198.2,44.86,201.79,50c2.2,3.4,48.34,76.92,11.14,196a256.71,256.71,0,0,1-14.15,35.55l-.17.35c-4.77,9.78-13.63,28-18.18,50.36a16.81,16.81,0,0,0,4,14.29c7.29,8.33,17,21.93,21.76,39.39a58,58,0,0,1-6.74,46.24,60.32,60.32,0,0,1-39.31,27.39c-30.7,6.17-77.4,10.36-125.51-4.69a72.35,72.35,0,0,1-34.61-23.08,72.38,72.38,0,0,1-34.62,23.08A234.27,234.27,0,0,1,1145.69,2706.42Zm-80.75-403.71c-3.11,5.19-41.49,72.74-8.44,178.56a236.14,236.14,0,0,0,13,32.76c5.32,10.9,14.92,30.59,20,55.49A36.94,36.94,0,0,1,1081,2601c-5.91,6.75-13.75,17.71-17.53,31.5a38.29,38.29,0,0,0,4.48,30.46,40.24,40.24,0,0,0,26.22,18.28c28.42,5.71,71.55,9.62,115.6-4.17,12-3.74,22-11.19,28.21-21,.47-.73.92-1.49,1.35-2.25a8.3,8.3,0,0,0,1-4h20a8.27,8.27,0,0,0,1,4c.42.75.87,1.5,1.34,2.23,6.22,9.79,16.24,17.24,28.22,21,44.06,13.79,87.18,9.88,115.6,4.17a40.22,40.22,0,0,0,26.21-18.28,38.21,38.21,0,0,0,4.48-30.46c-3.78-13.8-11.61-24.75-17.52-31.5a36.91,36.91,0,0,1-8.53-31.44c5.06-24.87,14.65-44.56,19.8-55.14l.18-.35a235.1,235.1,0,0,0,13-32.76c33-105.69-5.23-173.21-8.44-178.57-2.61-3-38.83-41.46-185.39-41.46S1067.52,2299.71,1064.94,2302.71Z" transform="translate(-377.25 -817.5)"/><path class="cls-10" d="M977.22,2185.79c-98.91-6.78-112.54-57.06-99-108.64,10.35-39.6,36.69-80,52.74-102.05A130.72,130.72,0,0,0,950,1936.69c56.44-183.41,180-124.7,180-124.7s.36,2.43.94,6.86C1137.61,1870.73,1172,2199.13,977.22,2185.79Z" transform="translate(-377.25 -817.5)"/><g class="cls-3"><path class="cls-4" d="M977.22,2185.79c-98.91-6.78-112.54-57.06-99-108.64l.44.66c21.49,32.06,70.91,23.94,81.25-13.25a517.26,517.26,0,0,0,14-65.39c7.33-51.82,55-173.75,157.12-180.32C1137.61,1870.73,1172,2199.13,977.22,2185.79Z" transform="translate(-377.25 -817.5)"/></g><g class="cls-5"><path class="cls-6" d="M925.31,1997.63a130.44,130.44,0,0,0,19.07-38.41c56.45-183.41,180-124.69,180-124.69s.36,2.42.94,6.85c3.54,27.7,15,134.25-4.77,225.52,27.36-95.41,14.24-218,10.4-248.05-.58-4.43-.94-6.86-.94-6.86s-123.58-58.71-180,124.7a130.72,130.72,0,0,1-19.08,38.41c-16.05,22.08-42.39,62.45-52.74,102.05-1.12,4.27-2.05,8.53-2.76,12.76C887.18,2053.57,910.58,2017.9,925.31,1997.63Z" transform="translate(-377.25 -817.5)"/></g><path class="cls-4" d="M988.56,2196.19c-3.94,0-7.95-.15-12-.42-55.47-3.8-91-21.5-105.49-52.61-25.4-54.38,21.55-132.32,51.8-173.94a120.16,120.16,0,0,0,17.6-35.48c20.87-67.81,53.23-111.77,96.2-130.67,50.27-22.11,95.77-1,97.69-.12l4.8,2.29.79,5.26c1.52,10,36,246.66-54,344.33C1060.61,2182.3,1027.89,2196.19,988.56,2196.19Zm96.24-383.09a99.14,99.14,0,0,0-40.38,8.4c-37.27,16.53-65.82,56.27-84.85,118.12A140.41,140.41,0,0,1,939,1981c-22.26,30.64-71.7,106.95-49.86,153.71,11.22,24,41.08,37.86,88.74,41.13,38.92,2.65,69.43-8.63,93.3-34.53,76.27-82.72,54.38-285.61,49.71-322.15A111.85,111.85,0,0,0,1084.8,1813.1Z" transform="translate(-377.25 -817.5)"/><path class="cls-10" d="M1523.45,2185.79c98.91-6.78,112.55-57.06,99-108.64-10.35-39.6-36.69-80-52.74-102.05a130.47,130.47,0,0,1-19.08-38.41c-56.44-183.41-180-124.7-180-124.7s-.36,2.43-.94,6.86C1363.07,1870.73,1328.71,2199.13,1523.45,2185.79Z" transform="translate(-377.25 -817.5)"/><g class="cls-3"><path class="cls-4" d="M1523.45,2185.79c98.91-6.78,112.55-57.06,99-108.64l-.44.66c-21.49,32.06-70.91,23.94-81.26-13.25a520.79,520.79,0,0,1-14-65.39c-7.32-51.82-55-173.75-157.11-180.32C1363.07,1870.73,1328.71,2199.13,1523.45,2185.79Z" transform="translate(-377.25 -817.5)"/></g><g class="cls-5"><path class="cls-6" d="M1575.37,1997.63a130.72,130.72,0,0,1-19.08-38.41c-56.44-183.41-180-124.69-180-124.69s-.36,2.42-.94,6.85c-3.54,27.7-15,134.25,4.77,225.52-27.36-95.41-14.24-218-10.4-248.05.58-4.43.94-6.86.94-6.86s123.58-58.71,180,124.7a130.47,130.47,0,0,0,19.08,38.41c16,22.08,42.39,62.45,52.74,102.05q1.68,6.41,2.76,12.76C1613.49,2053.57,1590.1,2017.9,1575.37,1997.63Z" transform="translate(-377.25 -817.5)"/></g><path class="cls-4" d="M1512.12,2196.19c-39.34,0-72-13.89-97.37-41.36-90-97.67-55.52-334.31-54-344.33l.79-5.26,4.8-2.29c1.91-.9,47.41-22,97.69.12,43,18.9,75.33,62.86,96.2,130.67a120.25,120.25,0,0,0,17.59,35.48c30.25,41.62,77.2,119.56,51.8,173.94-14.52,31.11-50,48.81-105.48,52.61C1520.07,2196,1516.06,2196.19,1512.12,2196.19Zm-132.36-377c-4.67,36.54-26.56,239.43,49.71,322.15,23.87,25.89,54.39,37.18,93.3,34.53,47.66-3.27,77.52-17.1,88.73-41.13,21.84-46.76-27.59-123.07-49.85-153.71a139.93,139.93,0,0,1-20.54-41.36c-19-61.85-47.58-101.59-84.86-118.12C1423.07,1806.78,1391.53,1815,1379.76,1819.14Z" transform="translate(-377.25 -817.5)"/><path class="cls-10" d="M1250.34,2339.75c-344.54,0-300-152.27-280.7-196.94,2.05-4.75,4-9.82,5.82-15.12,9.46-27.26,16-60.08,19.68-81.41,1.91-11.17,3.3-22.44,4.41-33.72,23.24-234.53,250.79-224,250.79-224s227.54-10.51,250.79,224c1.11,11.28,2.5,22.55,4.41,33.72,4.38,25.46,12.86,67.33,25.5,96.53C1550.36,2187.48,1594.88,2339.75,1250.34,2339.75Z" transform="translate(-377.25 -817.5)"/><path class="cls-6" d="M1531,2142.81c-2-4.75-4-9.82-5.82-15.12-18.55-9.27-50.14-17.72-91.93-1.79A100,100,0,0,1,1324.84,2101q-3.67-3.91-7.45-8.25c-8.38-9.61-16.14-18.05-23.17-25.38a60.86,60.86,0,0,0-87.76,0c-7,7.33-14.79,15.77-23.17,25.38q-3.78,4.34-7.45,8.25a100,100,0,0,1-108.45,24.94c-41.79-15.93-73.38-7.48-91.93,1.79-1.82,5.3-3.77,10.37-5.82,15.12-19.32,44.67-63.84,196.94,280.7,196.94S1550.36,2187.48,1531,2142.81Z" transform="translate(-377.25 -817.5)"/><g class="cls-3"><path class="cls-4" d="M1250.34,2339.75c-344.54,0-300-152.27-280.7-196.94,1.31-3.06,2.59-6.26,3.83-9.56-12.26,56.61,4.43,158.41,276.87,158.41s289.13-101.84,276.87-158.45c1.22,3.33,2.5,6.54,3.83,9.6C1550.36,2187.48,1594.88,2339.75,1250.34,2339.75Z" transform="translate(-377.25 -817.5)"/></g><g class="cls-5"><path class="cls-6" d="M1531,2142.81c-12.64-29.2-21.12-71.07-25.5-96.53-1.91-11.17-3.3-22.44-4.41-33.72-23.25-234.53-250.79-224-250.79-224s-227.55-10.51-250.79,224c-1.11,11.28-2.5,22.55-4.41,33.72-3.66,21.33-10.22,54.15-19.68,81.41-1.82,5.3-3.77,10.37-5.82,15.12-7,16.21-17.35,46.61-11.18,78.76-.33-24.84,7.43-47,13.06-60,2-4.75,4-9.82,5.82-15.11,9.46-27.26,16-60.08,19.67-81.41,1.92-11.18,3.31-22.44,4.42-33.73,11.24-113.45,70.29-169.55,128.26-197.25,4.62,9,25.54,11.05,48.44,4.48,22.73-6.53,39.28-19.26,38.69-29.28,21.4-2.6,35.4-2,35.4-2s227.54-10.52,250.79,224c1.1,11.29,2.49,22.55,4.41,33.73,4.37,25.46,12.86,67.33,25.5,96.52a164.17,164.17,0,0,1,11.15,36.78C1543.51,2175.33,1536.33,2155,1531,2142.81Z" transform="translate(-377.25 -817.5)"/></g><path class="cls-12" d="M1166.08,2075.85" transform="translate(-377.25 -817.5)"/><path class="cls-12" d="M1088.53,2075.85" transform="translate(-377.25 -817.5)"/><path class="cls-4" d="M1322.69,2148.47c0,22.5-32.39,46.38-72.35,46.38S1178,2171,1178,2148.47s32.4-40.74,72.36-40.74S1322.69,2126,1322.69,2148.47Z" transform="translate(-377.25 -817.5)"/><ellipse class="cls-6" cx="873.09" cy="1310.62" rx="38.42" ry="6.84"/><path class="cls-4" d="M1138.62,2173.26c1.62,13.24,6.41,26.51,14.55,35.79a41,41,0,0,0,14.74,10.32,45.53,45.53,0,0,0,8.79,2.44c1.53.24,3,.68,4.57.78l4.74.18c3.11.32,6.4-.15,9.64-.29s6.35-.86,9.53-1.26c6.13-1.43,12.12-3.33,17.3-6.44,10.49-5.77,19.2-15.17,25.08-27.1l.19-.39a2.83,2.83,0,0,1,5.37,1.17c.47,15.81-9.08,31.05-22.86,39.48-6.82,4.4-14.58,6.53-22.13,8.19a87.9,87.9,0,0,1-22.89,1.24l-5.8-.51c-1.94-.23-3.87-.83-5.8-1.24a36.51,36.51,0,0,1-5.74-1.59l-5.55-2.36c-7.13-3.7-13.8-8.74-18.35-15.31a59.32,59.32,0,0,1-9.38-21,68.76,68.76,0,0,1-1.63-22.24,2.82,2.82,0,0,1,5.6-.09Z" transform="translate(-377.25 -817.5)"/><path class="cls-4" d="M1259.64,2186.77a32,32,0,0,0,1,3.52c.43,1.33,1,2.64,1.58,4a40.27,40.27,0,0,0,4.35,7.39,45.33,45.33,0,0,0,12.55,11.49c9.83,6.09,22.84,8.26,35.42,8.09l4.62-.16c1.53-.1,3-.52,4.44-.72a38.33,38.33,0,0,0,8.51-2.32,39.81,39.81,0,0,0,14.16-9.93c7.92-8.87,12.91-21.64,15.75-34.83l0-.25a2.83,2.83,0,0,1,5.56.1,60.62,60.62,0,0,1-.49,22.58,56.59,56.59,0,0,1-9.31,21.63c-4.71,6.74-11.6,11.93-18.94,15.69-3.79,1.64-7.6,3.34-11.57,4.08a59.93,59.93,0,0,1-5.93,1.3l-5.92.54a77.2,77.2,0,0,1-11.66.16c-3.84.09-7.77-.78-11.65-1.28-7.73-1.63-15.62-3.88-22.77-8.22a57.55,57.55,0,0,1-18.47-16.71,59.48,59.48,0,0,1-6.21-10.88,51.56,51.56,0,0,1-2.17-5.92,45.37,45.37,0,0,1-1.55-6.71,9.33,9.33,0,0,1,18.2-4Z" transform="translate(-377.25 -817.5)"/><ellipse class="cls-4" cx="756.39" cy="1229.99" rx="41.32" ry="52.49"/><ellipse class="cls-6" cx="769.59" cy="1224.68" rx="14.11" ry="17.93"/><ellipse class="cls-4" cx="996.39" cy="1229.99" rx="41.32" ry="52.49"/><ellipse class="cls-6" cx="983.19" cy="1224.68" rx="14.11" ry="17.93"/><path class="cls-4" d="M1250.34,2349.75c-151.62,0-247.81-29.39-285.9-87.36-30.13-45.84-15.42-97.09-4-123.55,12.48-28.85,20.91-71.44,24.82-94.25,1.7-9.91,3.08-20.4,4.33-33,23.37-236.06,249-233.33,260.73-233,11.82-.27,237.35-3,260.73,233,1.25,12.62,2.63,23.11,4.33,33,3.91,22.82,12.34,65.4,24.82,94.25,11.44,26.46,26.14,77.7-4,123.55C1498.15,2320.36,1402,2349.75,1250.34,2349.75Zm-4-551.27c-13.15,0-60.57,1.65-109.23,23.55-75.42,33.93-118.34,98.37-127.57,191.51-1.28,12.93-2.76,24.19-4.51,34.43-5,28.94-13.54,69.58-26.18,98.81-9.85,22.76-22.64,66.63,2.33,104.63,33.68,51.25,126.76,78.34,269.19,78.34s235.51-27.09,269.19-78.34c25-38,12.17-81.87,2.33-104.63-12.64-29.22-21.21-69.86-26.18-98.81-1.75-10.24-3.23-21.5-4.51-34.43C1481.94,1920.4,1439,1856,1363.6,1822c-57-25.64-112.25-23.53-112.81-23.49h-.9C1249.81,1798.53,1248.56,1798.48,1246.31,1798.48Z" transform="translate(-377.25 -817.5)"/><path class="cls-13" d="M1250.35,2369.73c61.51,0,83.66-42.15,71.84-80.77-5.5-18-3.34-59-3.34-59s-65.56,5.2-68.51-47.3c-2.95,52.5-68.51,47.3-68.51,47.3s2.16,41-3.34,59c-11.83,38.62,10.33,80.77,71.83,80.77" transform="translate(-377.25 -817.5)"/><path class="cls-4" d="M1258.79,2182.64c.9,10.61,1.1,21.22,1.16,31.84s-.22,21.22-.73,31.83-1.1,21.22-2.3,31.83a246.7,246.7,0,0,1-5.44,31.84,1.18,1.18,0,0,1-2.28,0,246.7,246.7,0,0,1-5.44-31.84c-1.2-10.61-1.84-21.22-2.3-31.83s-.72-21.22-.73-31.83.26-21.23,1.16-31.84a8.48,8.48,0,0,1,16.9,0Z" transform="translate(-377.25 -817.5)"/><path class="cls-4" d="M1250.35,2379.73a0,0,0,0,0,0,0c-31.79,0-57.36-10.89-72-30.66-12.91-17.44-16.34-40.43-9.41-63,4.08-13.33,3.49-44.63,2.92-55.57l-.6-11.39,11.37.9c.29,0,29.65,2.05,46.33-12.58,7.07-6.19,10.8-14.47,11.4-25.31h20c.62,10.86,4.36,19.16,11.46,25.36,16.55,14.45,46,12.55,46.28,12.53l11.37-.9-.6,11.39c-.57,10.94-1.16,42.25,2.92,55.57,6.92,22.61,3.49,45.6-9.41,63C1307.71,2368.84,1282.15,2379.73,1250.35,2379.73ZM1192.19,2240c.29,14,.08,38.15-4.14,51.93-5,16.49-2.73,33,6.37,45.3,10.91,14.75,30.24,22.55,55.9,22.55h0c25.67,0,45-7.8,55.91-22.55,9.09-12.3,11.41-28.81,6.36-45.3-4.21-13.78-4.42-37.92-4.13-51.93-12.92-.66-34.38-3.92-49.86-17.45a52.35,52.35,0,0,1-8.29-9.11,52.35,52.35,0,0,1-8.29,9.11C1226.56,2236,1205.11,2239.29,1192.19,2240Z" transform="translate(-377.25 -817.5)"/><path class="cls-6" d="M1217.88,2157.49s-26.15,48.69-82.07,15.69c0,0-5.1,57.14,54.71,57.14s59.82-59.15,59.82-59.15Z" transform="translate(-377.25 -817.5)"/><path class="cls-6" d="M1282.79,2157.49s26.16,48.69,82.08,15.69c0,0,5.1,57.14-54.72,57.14s-59.81-59.15-59.81-59.15Z" transform="translate(-377.25 -817.5)"/><g class="cls-3"><path class="cls-4" d="M1364.85,2168.15s-7.35,24.15-42.19,29.88c-13,2.13-22.85-.77-30.17-5.24,18.28-9,30.2-23.16,30.2-36.81,0-22.5-32.39-40.74-72.35-40.74S1178,2133.48,1178,2156c0,13.64,11.92,27.78,30.2,36.8-7.33,4.48-17.23,7.38-30.2,5.25-34.83-5.73-42.18-29.88-42.18-29.88s-30.17,75,53.11,82.69c0,0,30.69,3.62,61.41-22.13,30.73,25.75,61.41,22.13,61.41,22.13C1395,2243.19,1364.85,2168.15,1364.85,2168.15Z" transform="translate(-377.25 -817.5)"/></g><path class="cls-4" d="M1322.69,2148.47c0,22.5-32.39,46.38-72.35,46.38S1178,2171,1178,2148.47s32.4-40.74,72.36-40.74S1322.69,2126,1322.69,2148.47Z" transform="translate(-377.25 -817.5)"/><ellipse class="cls-6" cx="873.09" cy="1310.62" rx="38.42" ry="6.84"/><path class="cls-4" d="M1260.24,2189.45a44,44,0,0,1-1.57,6.82,52.55,52.55,0,0,1-2.18,6,60.34,60.34,0,0,1-6.27,11,58.84,58.84,0,0,1-18.64,16.94c-7.2,4.44-15.21,6.62-23,8.26-3.91.47-7.87,1.33-11.73,1.24a75.62,75.62,0,0,1-11.73-.18l-6-.55a57.6,57.6,0,0,1-6-1.31,56.23,56.23,0,0,1-11.67-4.14c-7.41-3.81-14.36-9.07-19.1-15.88a56.63,56.63,0,0,1-9.29-21.82,59.79,59.79,0,0,1-.31-22.7,3,3,0,0,1,5.91-.11l.06.28c3,13.13,8.07,25.79,16,34.52a39.25,39.25,0,0,0,14,9.75,37.9,37.9,0,0,0,8.41,2.25c1.48.2,2.87.62,4.39.7l4.58.15c12.5.19,25.37-2.14,35-8.1a43.55,43.55,0,0,0,12.4-11.27,40.15,40.15,0,0,0,4.29-7.27c.52-1.3,1.13-2.6,1.56-3.9a33.36,33.36,0,0,0,1-3.41l.51-1.67a9.92,9.92,0,0,1,19.3,4.43Z" transform="translate(-377.25 -817.5)"/><path class="cls-4" d="M1260.24,2186.69a33.92,33.92,0,0,0,1,3.41c.43,1.3,1,2.6,1.56,3.9a39.58,39.58,0,0,0,4.29,7.27,43.51,43.51,0,0,0,12.39,11.27c9.66,6,22.54,8.29,35,8.1l4.58-.15c1.52-.08,2.91-.5,4.39-.7a37.9,37.9,0,0,0,8.41-2.25,39.25,39.25,0,0,0,14-9.75c7.88-8.73,12.94-21.39,15.94-34.52l.07-.28a3,3,0,0,1,5.91.11,60,60,0,0,1-.31,22.7,56.5,56.5,0,0,1-9.3,21.82c-4.73,6.81-11.68,12.07-19.09,15.88-3.82,1.66-7.67,3.38-11.67,4.14a57.6,57.6,0,0,1-6,1.31l-6,.55a75.73,75.73,0,0,1-11.74.18c-3.86.09-7.81-.77-11.72-1.24-7.79-1.64-15.79-3.82-23-8.26a58.92,58.92,0,0,1-18.63-16.94,59.76,59.76,0,0,1-6.27-11,52.6,52.6,0,0,1-2.19-6,45.13,45.13,0,0,1-1.57-6.82,9.93,9.93,0,0,1,19.31-4.43Z" transform="translate(-377.25 -817.5)"/><path class="cls-14" d="M2496.4,2639.3c-29,117.45-118.4,224.7-161.1,270.8a54.81,54.81,0,0,1-56.3,15.05c-49.65-15.35-140.8-52.5-172.2-124.9a54.09,54.09,0,0,1,4.25-50.35c14.8-23.45,39-64.6,56.4-108.45,0,0-64.65,37.85-162.5,37.85h0c-97.8,0-162.45-37.85-162.45-37.85,17.4,43.85,41.6,85,56.4,108.45a54.09,54.09,0,0,1,4.25,50.35c-31.4,72.4-122.55,109.55-172.2,124.9a54.81,54.81,0,0,1-56.3-15.05c-13.25-14.3-31-34.55-50.1-59.15-42.3-54.55-91-130.7-111-211.65-38.55-156.45,74-232.5,169.3-211.1,3.4.75,6.9,1.5,10.6,2.2a1.86,1.86,0,0,1,.45.1c26.05,5.1,59.4,9.3,94.5,12.8a2192.57,2192.57,0,0,0,433.2,0c40.3-4,78.3-9,105.55-15.1C2422.45,2406.8,2535,2482.85,2496.4,2639.3Z" transform="translate(-377.25 -817.5)"/><g class="cls-3"><path class="cls-4" d="M2215.55,2730.35c12.85-158.55-31.1-196.5-31.1-196.5S2123.1,2619,2004.9,2619s-179.55-85.1-179.55-85.1-43.95,38-31.1,196.5S1624.5,2851,1624.5,2851c19.1,24.6,36.85,44.85,50.1,59.15a54.81,54.81,0,0,0,56.3,15.05c49.65-15.35,140.8-52.5,172.2-124.9a54.09,54.09,0,0,0-4.25-50.35c-14.8-23.45-39-64.6-56.4-108.45,0,0,64.65,37.85,162.45,37.85s162.45-37.85,162.45-37.85c-17.4,43.85-41.6,85-56.4,108.45a54.09,54.09,0,0,0-4.25,50.35c31.4,72.4,122.55,109.55,172.2,124.9a54.81,54.81,0,0,0,56.3-15.05c13.25-14.3,31-34.55,50.1-59.15C2385.3,2851,2202.7,2889,2215.55,2730.35Z" transform="translate(-377.25 -817.5)"/></g><g class="cls-5"><path class="cls-6" d="M1624.5,2851c-42.3-54.55-91-130.7-111-211.65-38.55-156.45,74-232.5,169.3-211.1a107.38,107.38,0,0,1,10.6,2.2,1.86,1.86,0,0,1,.45.1c21.5,5.5,68.85,22.6,88.6,70.05,0,0-104-66.45-180-26.55S1509.4,2637.25,1624.5,2851Z" transform="translate(-377.25 -817.5)"/></g><g class="cls-5"><path class="cls-6" d="M2385.3,2851c42.3-54.55,91-130.7,111-211.65,38.55-156.45-74-232.5-169.3-211.1a107.38,107.38,0,0,0-10.6,2.2,1.86,1.86,0,0,0-.45.1c-21.5,5.5-68.85,22.6-88.6,70.05,0,0,104-66.45,180-26.55S2500.4,2637.25,2385.3,2851Z" transform="translate(-377.25 -817.5)"/></g><path class="cls-4" d="M1826,2645.85a92.39,92.39,0,0,1-5-17.73,137.44,137.44,0,0,1-2-18.06,133.81,133.81,0,0,1,.29-18.34,93,93,0,0,1,3.38-18.21,4.75,4.75,0,0,1,8.94-.47l.09.23c2.18,5.38,4.34,10.5,6.57,15.56s4.54,10,6.9,14.93l7,14.64c2.21,4.78,4.56,9.91,6.21,14.32l.16.44a17.5,17.5,0,0,1-32.61,12.69Z" transform="translate(-377.25 -817.5)"/><path class="cls-4" d="M2151.5,2632.72c1.64-4.41,4-9.54,6.21-14.32l7-14.64c2.37-4.91,4.6-9.88,6.91-14.93s4.39-10.18,6.57-15.56l.08-.21a4.75,4.75,0,0,1,8.95.45,93.76,93.76,0,0,1,3.38,18.21,133.81,133.81,0,0,1,.29,18.34,135.77,135.77,0,0,1-2,18.06,91,91,0,0,1-4.95,17.73,17.5,17.5,0,0,1-32.62-12.66Z" transform="translate(-377.25 -817.5)"/><path class="cls-4" d="M1685.17,2410.87c3.72.43,6.4.79,9.46,1.4s5.87,1.2,8.72,2a138.6,138.6,0,0,1,16.92,5.62,143.55,143.55,0,0,1,31.5,17.46q3.64,2.8,7.16,5.74c2.31,2,4.46,4.26,6.67,6.38a65.58,65.58,0,0,1,6.21,6.86c1.88,2.48,4,4.66,5.52,7.46a61.45,61.45,0,0,1,10.17,35,5.66,5.66,0,0,1-9.6,3.91l-.5-.48c-8.06-7.88-14.12-14.87-21.33-20.94-7-6.11-14.21-11.79-22.54-16.24a181.64,181.64,0,0,0-26-11.52c-4.51-1.63-9.12-3.08-13.74-4.43l-6.92-1.93-6.39-1.64-1.62-.41a17.47,17.47,0,0,1,6.34-34.27Z" transform="translate(-377.25 -817.5)"/><path class="cls-4" d="M2329.46,2445.55l-6.39,1.64-6.92,1.93c-4.62,1.35-9.23,2.8-13.75,4.43a182.14,182.14,0,0,0-26,11.52c-8.32,4.45-15.53,10.13-22.53,16.24-7.21,6.07-13.27,13.06-21.34,20.94l-.49.48a5.66,5.66,0,0,1-9.61-3.91,61.39,61.39,0,0,1,10.18-35c1.49-2.8,3.63-5,5.52-7.46a63.43,63.43,0,0,1,6.21-6.86c2.21-2.12,4.35-4.39,6.67-6.38s4.73-3.87,7.15-5.74a143.62,143.62,0,0,1,31.51-17.46,138,138,0,0,1,16.92-5.62c2.84-.82,5.79-1.42,8.72-2s5.73-1,9.46-1.4a17.47,17.47,0,0,1,6.34,34.27Z" transform="translate(-377.25 -817.5)"/><path class="cls-4" d="M1714.91,2945a72.58,72.58,0,0,1-53.12-23.06c-49.15-53-136-159.74-165.26-278.5-18.92-76.74-5.13-143.7,38.82-188.58,38.5-39.31,96.48-56.06,151.3-43.76,23.84,5.35,58.64,10.32,103.45,14.76a2183.2,2183.2,0,0,0,429.7,0c44.81-4.44,79.62-9.41,103.46-14.76,54.81-12.31,112.79,4.45,151.3,43.76,44,44.88,57.73,111.84,38.81,188.58-29.28,118.76-116.1,225.47-165.25,278.5a72.61,72.61,0,0,1-74.3,19.88c-53.79-16.63-149.08-56.24-183.06-134.67a71.5,71.5,0,0,1,5.48-66.64c8.91-14.11,23.13-37.73,36.75-65.1a394.79,394.79,0,0,1-256.08,0c13.62,27.37,27.84,51,36.76,65.11a71.48,71.48,0,0,1,5.48,66.63c-34,78.43-129.28,118-183.06,134.67A71.9,71.9,0,0,1,1714.91,2945Zm-64.28-502.89c-33.83,0-66.75,13.23-90.28,37.24-35.14,35.89-45.74,91.19-29.83,155.71,28.42,115.27,119.22,222.39,156.94,263.09a37.42,37.42,0,0,0,38.29,10.23c48-14.86,132.87-49.56,161.28-115.15a36.51,36.51,0,0,0-3-34c-16.8-26.6-40.49-67.52-57.89-111.36a17.5,17.5,0,0,1,25.11-21.56c.58.34,62.21,35.46,153.65,35.46s153.08-35.12,153.69-35.48a17.51,17.51,0,0,1,25.08,21.58c-17.4,43.84-41.09,84.76-57.89,111.36a36.51,36.51,0,0,0-2.95,34c28.4,65.59,113.24,100.29,161.28,115.15a37.4,37.4,0,0,0,38.29-10.23c37.72-40.7,128.52-147.82,156.94-263.09,15.91-64.52,5.31-119.82-29.84-155.71-30.08-30.71-75.52-43.79-118.62-34.1-25.22,5.67-61.45,10.86-107.67,15.45a2219.41,2219.41,0,0,1-436.61,0c-46.22-4.59-82.45-9.78-107.68-15.45A128.67,128.67,0,0,0,1650.63,2442.15Z" transform="translate(-377.25 -817.5)"/><path class="cls-14" d="M1533.88,1294.64s-86,105.09-173.53,173.21c-34.86,27.13-41.83,77.48-14.12,111.88,29,36,86.9,75.69,201.58,101C1547.81,1680.77,1596.56,1546.43,1533.88,1294.64Z" transform="translate(-377.25 -817.5)"/><g class="cls-3"><path class="cls-4" d="M1560.84,1444.28c.11,96.32-18,146.49-18,146.49-114.68-25.35-172.58-65-201.58-101-.06-.07-.1-.15-.16-.22-16.88,27.56-16.26,63.63,5.16,90.22,29,36,86.9,75.69,201.58,101C1547.81,1680.77,1577.36,1599.26,1560.84,1444.28Z" transform="translate(-377.25 -817.5)"/></g><path class="cls-4" d="M1547.82,1698.27a17.59,17.59,0,0,1-3.79-.41c-101-22.33-172.14-58.38-211.43-107.15a94.27,94.27,0,0,1-20.29-70.59A97.4,97.4,0,0,1,1349.6,1454c84.93-66.08,169.89-169.44,170.74-170.48a17.5,17.5,0,0,1,30.52,6.86c63.24,254,15.47,390.63,13.4,396.32A17.5,17.5,0,0,1,1547.82,1698.27Zm-23.09-365.93c-31.59,36-91.77,101.19-153.64,149.32a62.71,62.71,0,0,0-24,42.5,59.57,59.57,0,0,0,12.78,44.59c31.69,39.34,92.23,70.72,175.64,91.18C1544.73,1621.47,1563.42,1509.25,1524.73,1332.34Z" transform="translate(-377.25 -817.5)"/><path class="cls-9" d="M1550,1560.36s-115.71-62.68-154.28,54.64,85.18,218.57,168.75,200.89Z" transform="translate(-377.25 -817.5)"/><g class="cls-3"><path class="cls-4" d="M1392.35,1626.8c-26.92,112.21,91.31,206.18,172.07,189.09l-3.65-64.4C1496.69,1762.31,1411.37,1705.93,1392.35,1626.8Z" transform="translate(-377.25 -817.5)"/></g><g class="cls-5"><path class="cls-6" d="M1395.67,1650c38.57-117.32,154.28-54.64,154.28-54.64l12.51,220.86c.64-.13,1.31-.19,2-.33L1550,1560.36s-115.71-62.68-154.28,54.64a139.58,139.58,0,0,0-6.06,62.17A143.8,143.8,0,0,1,1395.67,1650Z" transform="translate(-377.25 -817.5)"/></g><path class="cls-4" d="M1544.67,1835.39c-43.94,0-93-23.42-128.21-62.73-42.33-47.23-56-106.69-37.41-163.13,12.64-38.48,34.32-64.06,64.43-76,53.38-21.22,112.33,10.12,114.81,11.47a17.51,17.51,0,0,1,9.14,14.4l14.46,255.53A17.5,17.5,0,0,1,1568,1833,113.25,113.25,0,0,1,1544.67,1835.39Zm-60.74-274.27a74,74,0,0,0-27.66,5c-19.94,8-34.74,26.28-44,54.38-14.54,44.22-3.52,91.17,30.23,128.83,28.76,32.08,69.37,51.77,103.49,51.09l-12.93-228.55C1522.6,1567.5,1503.81,1561.12,1483.93,1561.12Z" transform="translate(-377.25 -817.5)"/><path class="cls-9" d="M2460,1560.36s115.72-62.68,154.29,54.64-85.18,218.57-168.75,200.89Z" transform="translate(-377.25 -817.5)"/><g class="cls-3"><path class="cls-4" d="M2617.56,1626.8c26.92,112.21-91.32,206.18-172.07,189.09l3.64-64.4C2513.21,1762.31,2598.53,1705.93,2617.56,1626.8Z" transform="translate(-377.25 -817.5)"/></g><g class="cls-5"><path class="cls-6" d="M2614.24,1650c-38.57-117.32-154.29-54.64-154.29-54.64l-12.5,220.86c-.65-.13-1.32-.19-2-.33L2460,1560.36s115.72-62.68,154.29,54.64a139.58,139.58,0,0,1,6.06,62.17A144.58,144.58,0,0,0,2614.24,1650Z" transform="translate(-377.25 -817.5)"/></g><path class="cls-4" d="M2465.24,1835.39a113.25,113.25,0,0,1-23.37-2.37A17.5,17.5,0,0,1,2428,1814.9l14.46-255.53a17.49,17.49,0,0,1,9.14-14.4c2.48-1.34,61.41-32.69,114.81-11.47,30.1,12,51.78,37.55,64.43,76,18.56,56.44,4.92,115.9-37.42,163.13C2558.21,1812,2509.18,1835.39,2465.24,1835.39Zm-1.35-35c34.13.74,74.73-19,103.49-51.09,33.75-37.66,44.77-84.61,30.23-128.83-9.23-28.1-24-46.4-44-54.38-28.31-11.34-61.47-.6-76.81,5.75Z" transform="translate(-377.25 -817.5)"/><path class="cls-9" d="M2005,1435c332.5,0,492,65.89,492,65.89s-12.86,147.86,0,244.29S2456.38,2073,2005,2073s-504.82-231.43-492-327.86,0-244.29,0-244.29S1672.45,1435,2005,1435Z" transform="translate(-377.25 -817.5)"/><g class="cls-3"><path class="cls-4" d="M2495.81,1736.15C2479,1845.43,2377.5,2003,2005,2003s-474-157.61-490.85-266.89c-.35,3-.72,6.07-1.11,9-12.86,96.43,40.54,327.86,492,327.86s504.83-231.43,492-327.86C2496.52,1742.22,2496.15,1739.2,2495.81,1736.15Z" transform="translate(-377.25 -817.5)"/></g><ellipse class="cls-4" cx="1431.86" cy="886.61" rx="71.12" ry="90"/><ellipse class="cls-6" cx="1449.53" cy="872.14" rx="26.25" ry="33.21"/><path class="cls-4" d="M1826.78,1724.73c-15.5,0-28.12-15.74-28.12-35.09s12.62-35.09,28.12-35.09,28.12,15.75,28.12,35.09S1842.29,1724.73,1826.78,1724.73Zm0-66.43c-13.43,0-24.37,14.06-24.37,31.34s10.94,31.34,24.37,31.34,24.37-14.06,24.37-31.34S1840.22,1658.3,1826.78,1658.3Z" transform="translate(-377.25 -817.5)"/><ellipse class="cls-4" cx="1823.55" cy="886.61" rx="71.12" ry="90"/><ellipse class="cls-6" cx="1805.87" cy="872.14" rx="26.25" ry="33.21"/><path class="cls-4" d="M2183.12,1724.73c-15.5,0-28.12-15.74-28.12-35.09s12.62-35.09,28.12-35.09,28.12,15.75,28.12,35.09S2198.63,1724.73,2183.12,1724.73Zm0-66.43c-13.43,0-24.37,14.06-24.37,31.34s10.94,31.34,24.37,31.34,24.37-14.06,24.37-31.34S2196.56,1658.3,2183.12,1658.3Z" transform="translate(-377.25 -817.5)"/><path class="cls-4" d="M1753.22,1581.71a86.3,86.3,0,0,1,23.77-16.06,93.32,93.32,0,0,1,28.35-8.17c10-1.51,20.63-.36,30.69,2.54l7.41,2.68c2.37,1.15,4.63,2.51,6.93,3.76,1.14.64,2.27,1.3,3.35,2l3,2.43c2,1.68,4,3.35,5.79,5.14a10,10,0,0,1-10.92,16.35l-1.44-.62c-7.37-3.17-13.79-6.92-21.17-8.69a96.39,96.39,0,0,0-22.69-3.84,139.9,139.9,0,0,0-24.67,1.47,235.51,235.51,0,0,0-25.69,5.42l-.21,0a2.67,2.67,0,0,1-2.55-4.49Z" transform="translate(-377.25 -817.5)"/><path class="cls-4" d="M2253.93,1586.15a235.68,235.68,0,0,0-25.7-5.42,139.85,139.85,0,0,0-24.67-1.47,96.3,96.3,0,0,0-22.68,3.84c-7.38,1.77-13.81,5.52-21.18,8.69l-1.42.61a10,10,0,0,1-10.93-16.34c1.83-1.79,3.8-3.46,5.79-5.14l3.05-2.43c1.08-.73,2.21-1.39,3.35-2,2.29-1.25,4.56-2.61,6.92-3.76l7.42-2.68c10.06-2.9,20.66-4,30.69-2.54a93.32,93.32,0,0,1,28.35,8.17,86.45,86.45,0,0,1,23.77,16.06,2.67,2.67,0,0,1-2.55,4.49Z" transform="translate(-377.25 -817.5)"/><path class="cls-4" d="M2098.65,1933.85h-.05c-7.55,10.25-18,20-32.5,28.05a125.28,125.28,0,0,1-122.3,0c-14.45-8.1-25-17.8-32.55-28.05-17-23-19.45-49.1-18.35-67.2a18.1,18.1,0,0,1,22.85-16.45c40.3,11.1,89.2,12.3,89.2,12.3s48.9-1.2,89.2-12.3a18.1,18.1,0,0,1,22.85,16.45C2118.1,1884.75,2115.7,1910.8,2098.65,1933.85Z" transform="translate(-377.25 -817.5)"/><path class="cls-15" d="M2098.6,1933.85c-7.55,10.25-18,20-32.5,28.05a125.28,125.28,0,0,1-122.3,0c-14.45-8.1-25-17.8-32.55-28.05C1911.25,1933.85,1991.6,1866.05,2098.6,1933.85Z" transform="translate(-377.25 -817.5)"/><path class="cls-4" d="M2005,1990.29a137.19,137.19,0,0,1-67.28-17.51c-53.62-30.16-58.88-79.92-57.24-106.89a30.59,30.59,0,0,1,38.66-27.74c36.75,10.14,81.73,11.72,85.86,11.85,4.12-.13,49.19-1.73,85.86-11.85a30.6,30.6,0,0,1,38.67,27.74c1.64,27-3.62,76.73-57.24,106.89A137.22,137.22,0,0,1,2005,1990.29Zm-94-128.25a5.49,5.49,0,0,0-3.17,1,5.66,5.66,0,0,0-2.38,4.33c-1.57,25.83,4.89,61.29,44.54,83.59a112.88,112.88,0,0,0,110.07,0h0c39.65-22.3,46.1-57.76,44.53-83.59a5.62,5.62,0,0,0-2.37-4.33,5.41,5.41,0,0,0-4.68-.82c-41.3,11.4-90.16,12.7-92.22,12.75h-.6c-2.06,0-50.91-1.35-92.21-12.75A5.59,5.59,0,0,0,1910.93,1862Z" transform="translate(-377.25 -817.5)"/><path class="cls-4" d="M2005,2090.54c-210.15,0-359.36-48.73-443.49-144.82-74.78-85.41-69.28-176.86-65.82-202.85,12.45-93.38,0-239-.09-240.46a17.51,17.51,0,0,1,10.76-17.69C1513,1482,1672.8,1417.5,2005,1417.5s492,64.48,498.65,67.22a17.51,17.51,0,0,1,10.75,17.69c-.12,1.46-12.54,147.08-.08,240.46,3.46,26,9,117.44-65.82,202.85C2364.32,2041.81,2215.1,2090.54,2005,2090.54Zm-473.47-577.75c2.85,39,9.69,153.46-1.15,234.7-3,22.3-7.61,100.85,57.46,175.17,76.11,86.93,220.36,132.88,417.16,132.88s341.06-46,417.17-132.88c65.07-74.32,60.43-152.87,57.45-175.17-10.83-81.24-4-195.71-1.14-234.7-42.35-14.41-198.78-60.29-473.48-60.29S1573.85,1498.37,1531.48,1512.79Z" transform="translate(-377.25 -817.5)"/><circle class="cls-7" cx="1627.7" cy="103.21" r="85.71"/><g class="cls-5"><path class="cls-6" d="M1929.24,945.71a85.65,85.65,0,0,1,159.29-43.8,85.67,85.67,0,1,0-157.16,62.6A86.18,86.18,0,0,1,1929.24,945.71Z" transform="translate(-377.25 -817.5)"/></g><path class="cls-4" d="M2005,1023.93a103.22,103.22,0,1,1,103.22-103.21A103.33,103.33,0,0,1,2005,1023.93Zm0-171.43a68.22,68.22,0,1,0,68.22,68.22A68.29,68.29,0,0,0,2005,852.5Z" transform="translate(-377.25 -817.5)"/><path class="cls-7" d="M2005,920.71c532,0,525.37,433.13,506.9,584.16a43.8,43.8,0,0,1-55.38,36.75c-86.87-24.26-186.57-40.11-270.14-50.23a1508.64,1508.64,0,0,0-362.75,0c-83.58,10.12-183.27,26-270.15,50.23a43.81,43.81,0,0,1-55.38-36.75C1479.59,1353.84,1473,920.71,2005,920.71Z" transform="translate(-377.25 -817.5)"/><g class="cls-3"><path class="cls-4" d="M2413.15,1076.28c75.61,123.85,69.61,277,60.32,352.92a40.49,40.49,0,0,1-51.19,34c-80.3-22.42-172.44-37.07-249.68-46.42a1394,1394,0,0,0-335.29,0c-77.24,9.35-169.39,24-249.68,46.42a40.49,40.49,0,0,1-51.19-34c-9.29-76-15.29-229.07,60.32-352.92-116.8,139.7-110,336.54-98.71,428.59a43.81,43.81,0,0,0,55.38,36.75c86.88-24.26,186.57-40.11,270.15-50.23a1508.64,1508.64,0,0,1,362.75,0c83.57,10.12,183.27,26,270.14,50.23a43.8,43.8,0,0,0,55.38-36.75C2523.11,1412.82,2530,1216,2413.15,1076.28Z" transform="translate(-377.25 -817.5)"/></g><g class="cls-5"><path class="cls-6" d="M2005,920.71c-457.92,0-516.76,321-512.49,506.63,3.54-155.41,57.29-375.63,318-447.74,6.69,15.25,47.88,22.33,96,15.87,47.13-6.34,84.35-23.47,88.13-39.65,3.45,0,6.86-.11,10.35-.11,430.3,0,508.2,283.38,512.5,471.63C2521.72,1241.66,2462.88,920.71,2005,920.71Z" transform="translate(-377.25 -817.5)"/></g><path class="cls-4" d="M1541.54,1560.75a61.25,61.25,0,0,1-60.86-53.76c-13.08-107-16.21-307.88,109.91-450.36,90.1-101.8,229.52-153.41,414.36-153.41s324.26,51.61,414.37,153.41c126.12,142.48,123,343.32,109.9,450.36a61.28,61.28,0,0,1-77.45,51.48c-72.71-20.29-162.72-37-267.54-49.71a1493.34,1493.34,0,0,0-358.55,0c-104.82,12.69-194.83,29.42-267.54,49.71A61.59,61.59,0,0,1,1541.54,1560.75ZM2005,938.22c-174.39,0-305,47.64-388.16,141.61-121.39,137.15-111.33,341.44-101.37,422.91a25.74,25.74,0,0,0,11.44,18.56,26.48,26.48,0,0,0,21.87,3.46c74.41-20.77,166.17-37.84,272.74-50.74a1528.22,1528.22,0,0,1,367,0c106.56,12.9,198.33,30,272.74,50.74a26.52,26.52,0,0,0,21.87-3.46,25.75,25.75,0,0,0,11.43-18.56c10-81.47,20-285.76-101.37-422.91C2309.94,985.86,2179.34,938.22,2005,938.22Z" transform="translate(-377.25 -817.5)"/><path class="cls-16" d="M2276.4,1578.05S2252.65,1386.8,2005,1393.2c0,0-115.9,1.6-196.25,10.45,0,0-24.7-83.15,71.5-146v-.05c29.15-19,69.4-36.2,124.75-48.65,0,0,115-19.3,168.55-86.8,0,0,.9,1.35,2.25,3.9,6.15,11.65,21.6,48.8,5.8,104,0,0,101.25,36.15,131.8,147.05S2276.4,1578.05,2276.4,1578.05Z" transform="translate(-377.25 -817.5)"/><g class="cls-3"><path class="cls-4" d="M2276.4,1578.05S2252.65,1386.8,2005,1393.2c0,0-115.9,1.6-196.25,10.45,0,0-24.7-83.15,71.5-146-.45,2.4-13.3,75.6,40.45,77.7C1975.3,1337.5,2321.4,1287.15,2276.4,1578.05Z" transform="translate(-377.25 -817.5)"/></g><g class="cls-3"><path class="cls-4" d="M2173.53,1122.14s-6.72,128.31-119,147.93c-5.24.91-5.7,8.27-.66,10,35.84,12.07,113.68,28.89,173.39-24.54l-45.71-25.41S2197.1,1184.29,2173.53,1122.14Z" transform="translate(-377.25 -817.5)"/></g><g class="cls-5"><path class="cls-6" d="M2175.75,1126.05c-8.8,57.6-69.92,91.09-188.12,118.24-149.65,34.4-178.93,159.36-178.93,159.36s-24.7-83.15,71.5-146v-.05c29.15-19,69.4-36.2,124.75-48.65,0,0,115-19.3,168.55-86.8C2173.5,1122.15,2174.4,1123.5,2175.75,1126.05Z" transform="translate(-377.25 -817.5)"/></g><path class="cls-4" d="M2197.89,1236.38c-.47,1.14-.76,1.67-1.07,2.3s-.62,1.24-.94,1.78c-.64,1.11-1.29,2.2-2,3.2a68.69,68.69,0,0,1-4.2,5.86,88.76,88.76,0,0,1-9.77,10.08c-7.17,5.89-15,10.92-23.49,13.93-2.06.86-4.27,1.37-6.37,2a42,42,0,0,1-6.39,1.57c-2.15.39-4.27.86-6.4,1.14l-6.41.39a39.11,39.11,0,0,1-6.31,0c-2.09-.1-4.16-.17-6.21-.34-4.1-.5-8.12-1.28-12-2.06a4.08,4.08,0,0,1-.3-7.93l.52-.14c3.68-1,7.3-1.66,10.8-2.71,3.42-1.33,6.92-2,10.08-3.61a73.82,73.82,0,0,0,17.34-10.13,64.77,64.77,0,0,0,12.74-13.65,58.1,58.1,0,0,0,4.72-7.58c.59-1.33,1.36-2.56,1.86-3.83.31-.64.54-1.24.76-1.83.12-.3.25-.58.31-.79s.21-.57.08-.31a17.5,17.5,0,0,1,32.66,12.58Z" transform="translate(-377.25 -817.5)"/><path class="cls-4" d="M2276.38,1595.53a17.81,17.81,0,0,1-4.5-.58,17.52,17.52,0,0,1-12.86-14.76c-.93-7.11-25.39-175.3-253.61-169.48h-.21c-1.15,0-116,1.7-194.58,10.34a17.48,17.48,0,0,1-18.69-12.4c-.6-2-14.35-50.09,16.7-103.05,31.57-53.85,96.33-92.12,192.48-113.74.32-.08.63-.14,1-.19,1.07-.18,109.09-19.08,157.76-80.41a17.73,17.73,0,0,1,14.38-6.6,17.51,17.51,0,0,1,13.83,7.69c1.21,1.79,27.61,41.93,14,107.61,31.06,15.14,102.42,59.09,128.15,152.54,32.44,117.81-36.87,212.08-39.84,216A17.5,17.5,0,0,1,2276.38,1595.53Zm-259.5-220c127.23,0,195.41,52.23,230.43,96.85a239.59,239.59,0,0,1,34.46,60.39c15.38-33.91,31.69-89.31,14.7-151-27.79-101-119.87-134.89-120.8-135.22a17.5,17.5,0,0,1-10.94-21.29c8.9-31.14,6.83-55.39,2.87-71.39-59.18,53.72-150.53,70.69-159.24,72.21-84.36,19-142.83,52.39-169.09,96.44-14.82,24.86-16.63,47.91-15.82,62,77.81-7.3,175.45-8.77,181.15-8.85Q2010.83,1375.55,2016.88,1375.56ZM2005,1393.22h0Z" transform="translate(-377.25 -817.5)"/><g class="cls-3"><path class="cls-4" d="M1396.87,1810.91s-27.86,14.88-45.29,69.41c-18.4,57.48-236.44,109.37-266-6.62a88.81,88.81,0,0,1-2-32.76c12.39-108,204.19-214.47,313.29-30.07Z" transform="translate(-377.25 -817.5)"/></g><path class="cls-9" d="M1400.3,1801.05s-30,11.45-54.65,64.3c-26,55.7-252.85,80.15-267.85-40.8a90.32,90.32,0,0,1,2.15-33.35c26.35-107.45,233.75-190.45,320.3,9.8Z" transform="translate(-377.25 -817.5)"/><g class="cls-3"><path class="cls-4" d="M1400.3,1801.05s-30,11.45-54.65,64.3c-26,55.7-252.85,80.15-267.85-40.8a90.32,90.32,0,0,1,2.15-33.35c71.8,103.9,202.45,51.7,234.3,19.85,35.75-35.75,84.2-11,86-10Z" transform="translate(-377.25 -817.5)"/></g><g class="cls-5"><path class="cls-6" d="M1385.48,1810.59c8.82-7.22,14.82-9.54,14.82-9.54l0,0c-86.55-200.25-294-117.25-320.3-9.8a92.15,92.15,0,0,0-2.74,22.25C1110.06,1713.7,1296.35,1641.14,1385.48,1810.59Z" transform="translate(-377.25 -817.5)"/></g><path class="cls-4" d="M1216.28,1926.31a261.09,261.09,0,0,1-40.29-3c-65.5-10.32-106.71-45.64-113.07-96.91-8.11-65.43,48.49-133.8,128.85-155.66,72.91-19.84,169.61,2.42,222.31,124.39a15,15,0,0,1-8.23,19.89c-.86.38-25.61,11.64-46.58,56.68C1343,1906.73,1277.77,1926.31,1216.28,1926.31Zm24.29-232.3a155.7,155.7,0,0,0-40.93,5.66c-65.18,17.73-113.16,72.92-106.94,123,6.28,50.68,57.8,66.21,88,71,69.57,11,141.41-13.12,151.42-34.63,16.77-36,36.13-54.75,49-64C1349.07,1729.73,1298.7,1694,1240.57,1694Z" transform="translate(-377.25 -817.5)"/><g class="cls-3"><path class="cls-4" d="M2573,1818.78s26.73,21.53,34.3,83.31c8,65.13,230.37,164.78,285.49,46.86S2742.57,1626.07,2573,1818.78Z" transform="translate(-377.25 -817.5)"/></g><path class="cls-9" d="M2585.55,1831.35s27.94,15.89,44.19,71.87c17.14,59,237.67,117.8,271,.54S2713.47,1627.77,2585.55,1831.35Z" transform="translate(-377.25 -817.5)"/><g class="cls-3"><path class="cls-4" d="M2665.8,1874.86c-30.57-49.63-69.49-50.08-69.49-50.08,1.76-5.87,3.68-11.48,5.67-16.93-5.62,7.24-11.11,15-16.43,23.5,0,0,27.94,15.89,44.19,71.87,17.14,59,237.67,117.8,271,.54a94.22,94.22,0,0,0,1.73-42.5C2848.86,1931.76,2692.74,1918.6,2665.8,1874.86Z" transform="translate(-377.25 -817.5)"/></g><g class="cls-5"><path class="cls-6" d="M2585.55,1831.35a46.23,46.23,0,0,1,7.15,5.56c125.07-159.82,316.37-25.11,300.42,85.37a88.57,88.57,0,0,0,7.57-18.52C2934,1786.49,2713.47,1627.77,2585.55,1831.35Z" transform="translate(-377.25 -817.5)"/></g><path class="cls-4" d="M2787.93,1986.37c-70.8,0-159.43-33.65-172.59-79-14-48.33-37.19-63-37.42-63.14a14.71,14.71,0,0,1-7-9.32,14.88,14.88,0,0,1,1.95-11.58c70.69-112.49,169.65-119.74,238.69-89,76.08,33.87,121.58,110.08,103.58,173.5-14.1,49.7-60.22,78.32-126.52,78.52Zm-182.41-158c11.28,11.08,27.55,32.55,38.63,70.71,6.62,22.79,74.07,57.48,144.36,57.33,30.52-.09,83.81-7.58,97.75-56.71,13.79-48.57-25.21-110.43-86.92-137.9C2728.24,1730.1,2656.57,1755,2605.52,1828.33Z" transform="translate(-377.25 -817.5)"/><rect class="cls-1" x="159.13" y="1512.48" width="439.5" height="852.16" rx="114.3"/><g class="cls-3"><path class="cls-4" d="M861.58,3067.14H650.68a114.29,114.29,0,0,1-114.3-114.29v115a114.29,114.29,0,0,0,114.3,114.29h210.9a114.29,114.29,0,0,0,114.3-114.29v-115A114.29,114.29,0,0,1,861.58,3067.14Z" transform="translate(-377.25 -817.5)"/></g><g class="cls-5"><path class="cls-6" d="M861.58,2330H650.68a114.3,114.3,0,0,0-114.3,114.3v50A114.3,114.3,0,0,1,650.68,2380h210.9a114.3,114.3,0,0,1,114.3,114.3v-50A114.3,114.3,0,0,0,861.58,2330Z" transform="translate(-377.25 -817.5)"/></g><path class="cls-4" d="M861.58,3199.64H650.68c-72.67,0-131.8-59.12-131.8-131.79V2444.28c0-72.67,59.13-131.8,131.8-131.8h210.9c72.68,0,131.8,59.13,131.8,131.8v623.57C993.38,3140.52,934.26,3199.64,861.58,3199.64Zm-210.9-852.16a96.9,96.9,0,0,0-96.8,96.8v623.57a96.9,96.9,0,0,0,96.8,96.79h210.9a96.9,96.9,0,0,0,96.8-96.79V2444.28a96.9,96.9,0,0,0-96.8-96.8Z" transform="translate(-377.25 -817.5)"/><rect class="cls-17" x="604.85" y="2427.74" width="302.56" height="586.64" rx="78.68" transform="translate(1135.01 4624.62) rotate(180)"/><rect class="cls-1" x="3033.93" y="2329.98" width="439.5" height="852.16" rx="114.3" transform="translate(6130.1 4694.62) rotate(-180)"/><rect class="cls-17" x="3102.4" y="2427.74" width="302.56" height="586.64" rx="78.68" transform="translate(6130.1 4624.62) rotate(180)"/><g class="cls-3"><path class="cls-4" d="M3148.22,3067.14h210.91a114.3,114.3,0,0,0,114.3-114.29v115a114.3,114.3,0,0,1-114.3,114.29H3148.22a114.29,114.29,0,0,1-114.29-114.29v-115A114.29,114.29,0,0,0,3148.22,3067.14Z" transform="translate(-377.25 -817.5)"/></g><g class="cls-5"><path class="cls-6" d="M3148.22,2330h210.91a114.3,114.3,0,0,1,114.3,114.3v50a114.3,114.3,0,0,0-114.3-114.3H3148.22a114.29,114.29,0,0,0-114.29,114.3v-50A114.29,114.29,0,0,1,3148.22,2330Z" transform="translate(-377.25 -817.5)"/></g><path class="cls-4" d="M3359.13,3199.64H3148.22c-72.67,0-131.79-59.12-131.79-131.79V2444.28c0-72.67,59.12-131.8,131.79-131.8h210.91c72.67,0,131.8,59.13,131.8,131.8v623.57C3490.93,3140.52,3431.8,3199.64,3359.13,3199.64Zm-210.91-852.16a96.9,96.9,0,0,0-96.79,96.8v623.57a96.9,96.9,0,0,0,96.79,96.79h210.91a96.91,96.91,0,0,0,96.8-96.79V2444.28a96.91,96.91,0,0,0-96.8-96.8Z" transform="translate(-377.25 -817.5)"/><path class="cls-4" d="M3617.45,3188.81c-33.69,5.44-67.39,8.19-101.09,10.45s-67.39,3-101.09,3.66c-67.39,1.43-134.79.67-202.18-.11l-101.09-.63-101.09,0h-2224l-101.09,0c-33.7,0-67.39.91-101.09,1.33s-67.4-.24-101.09-1.92c-16.85-1-33.7-2.27-50.55-4.37s-33.7-4.48-50.54-8.39a6.84,6.84,0,0,1,0-13.33c16.84-3.92,33.69-6.34,50.54-8.39s33.7-3.43,50.55-4.38q50.54-2.52,101.09-1.91c33.7.42,67.39,1.34,101.09,1.32l101.09,0h2224l101.09,0,101.09-.62c67.39-.78,134.79-1.54,202.18-.11,33.7.66,67.4,1.37,101.09,3.65s67.4,5,101.09,10.46a6.75,6.75,0,0,1,0,13.33Z" transform="translate(-377.25 -817.5)"/></svg>