<svg width="1087" height="1177" viewBox="0 0 1087 1177" fill="none" xmlns="http://www.w3.org/2000/svg">
<path d="M801.653 372.012C858.162 464.166 891.767 547.751 911.997 652.635C922.037 705.103 928.718 762.793 925.819 818.086C922.919 873.386 910.441 926.188 882.255 968.974C825.851 1054.59 706.408 1100.55 603.439 1083.21C500.508 1065.89 414.089 985.112 330.477 898.889C288.786 855.808 248.007 811.552 216.946 765.942C185.883 720.33 164.62 673.48 161.821 625.218L160.324 625.305L161.821 625.218C159.022 577.046 174.719 527.25 201.597 477.908C228.471 428.572 266.468 379.792 308.123 333.688C349.782 287.586 395.084 244.187 441.016 213.525C486.969 182.849 533.371 165.044 577.289 169.811C621.31 174.572 663.186 201.906 701.233 239.774C739.258 277.62 773.298 325.826 801.653 372.012Z" stroke="#4F3BFF" stroke-width="3"/>
<path d="M819.264 247.886C896.235 347.868 964.396 465.601 956.353 572.13C948.321 678.878 864.235 774.409 787.115 842.471C710.133 910.328 640.276 950.702 552.638 975C465 999.107 359.741 1007.14 287.868 939.077C215.996 871.015 177.51 727.066 192.039 602.99C206.567 478.914 274.268 374.916 346.141 274.729C418.013 174.747 494.057 78.7808 575.198 72.0156C656.191 65.2503 742.282 147.904 819.264 247.886Z" fill="#4F3BFF"/>
<path d="M836.739 230.501L836.74 230.501C865.132 271.294 878.622 326.205 883.191 385.22C887.758 444.22 883.397 507.162 876.209 563.85C861.819 676.904 836.292 764.46 788.762 855.73C741.033 947.031 671.639 1041.33 581.349 1054.04C536.198 1060.4 485.697 1046.42 438.603 1018.32C391.516 990.228 347.932 948.082 316.616 898.273C253.982 798.65 240.522 668.182 232.254 536.372C228.182 470.56 225.448 404.696 230.383 346.119C235.32 287.526 247.913 236.446 274.337 200.029L273.312 198.96L274.337 200.029C300.704 163.683 341.101 141.797 389.198 129.696C437.283 117.598 492.913 115.317 549.562 118.032C606.205 120.75 663.842 128.468 714.422 145.734C765.015 163.003 808.414 189.78 836.739 230.501Z" stroke="white" stroke-width="3"/>
</svg>
