<svg width="661" height="613" viewBox="0 0 661 613" fill="none" xmlns="http://www.w3.org/2000/svg">
<path d="M610.739 115.663L610.74 115.664C639.132 156.456 652.622 211.368 657.191 270.383C661.758 329.383 657.397 392.324 650.209 449.012C635.82 562.065 610.292 649.621 562.764 740.89C515.034 832.192 445.639 926.493 355.349 939.204C310.198 945.561 259.697 931.579 212.603 903.482C165.516 875.39 121.932 833.245 90.616 783.435C27.9816 683.812 14.5219 553.343 6.25397 421.533C2.18173 355.722 -0.551736 289.859 4.38335 231.282C9.31981 172.688 21.9132 121.609 48.3374 85.1921L47.3123 84.1229L48.3375 85.192C74.7039 48.8454 115.101 26.9596 163.198 14.8583C211.283 2.7603 266.913 0.479848 323.562 3.19429C380.205 5.9132 437.842 13.6311 488.422 30.8963C539.015 48.166 582.414 74.943 610.739 115.663Z" stroke="white" stroke-width="3"/>
</svg>
