<svg width="768" height="561" viewBox="0 0 768 561" fill="none" xmlns="http://www.w3.org/2000/svg">
<path d="M1.82098 458.381L0.32353 458.468L1.82097 458.381C-0.978194 410.209 14.7187 360.412 41.5965 311.07C68.4709 261.735 106.468 212.955 148.123 166.851C189.782 120.749 235.084 77.3502 281.016 46.6883C326.969 16.0118 373.371 -1.79287 417.289 2.97349C461.31 7.73484 503.186 35.0692 541.233 72.937C579.258 110.783 613.298 158.989 641.653 205.175C698.162 297.329 731.767 380.914 751.997 485.798C762.037 538.266 768.718 595.956 765.819 651.248C762.919 706.548 750.441 759.35 722.255 802.136C665.851 887.757 546.408 933.709 443.439 916.378C340.508 899.053 254.09 818.276 170.478 732.053C128.787 688.972 88.0071 644.715 56.9456 599.105C25.8827 553.493 4.62025 506.643 1.82098 458.381Z" stroke="#4F3BFF" stroke-width="3"/>
</svg>
